<?xml version="1.0" standalone="no"?>
<!DOCTYPE svg PUBLIC "-//W3C//DTD SVG 20010904//EN"
 "http://www.w3.org/TR/2001/REC-SVG-20010904/DTD/svg10.dtd">
<svg version="1.0" xmlns="http://www.w3.org/2000/svg"
 width="1920.000000pt" height="870.000000pt" viewBox="0 0 1920.000000 870.000000"
 preserveAspectRatio="xMidYMid meet">

<g transform="translate(0.000000,870.000000) scale(0.100000,-0.100000)"
fill="#000000" stroke="none">
<path d="M12352 5998 c-7 -7 -40 -13 -74 -13 -136 -4 -146 -5 -169 -26 -23
-19 -23 -20 -2 -10 33 17 33 14 1 -21 -17 -18 -25 -34 -19 -36 6 -2 11 -11 12
-20 0 -11 2 -12 6 -4 2 6 14 12 24 12 11 0 31 12 45 27 14 15 28 23 32 18 10
-15 50 -35 67 -35 8 0 15 -4 15 -9 0 -5 2 -16 5 -23 4 -9 -5 -20 -20 -28 -37
-20 -31 -29 19 -24 38 4 44 2 40 -13 -3 -13 6 -23 34 -36 21 -10 43 -27 50
-37 9 -15 7 -21 -14 -35 -13 -9 -29 -13 -34 -10 -6 3 -10 2 -10 -3 0 -6 -9 -8
-20 -5 -15 4 -20 0 -20 -14 0 -11 -3 -23 -7 -27 -10 -10 -13 -38 -5 -50 3 -6
8 -20 9 -30 2 -11 10 -27 18 -36 24 -27 18 -33 -28 -28 -41 5 -73 -6 -75 -25
-1 -18 -12 -19 -12 -1 -1 18 -1 18 -11 1 -6 -9 -14 -15 -20 -12 -5 4 -9 1 -9
-6 0 -19 -69 -1 -112 29 -21 15 -38 33 -38 41 0 8 -6 19 -14 25 -22 18 -46
104 -37 130 5 12 5 29 0 38 -5 9 -5 29 1 47 6 22 5 31 -3 31 -8 0 -8 3 1 12
18 18 15 28 -5 21 -15 -6 -16 -4 -5 9 7 9 11 22 10 29 -2 9 5 13 18 12 17 -2
23 5 28 29 3 17 5 33 3 35 -6 6 -57 -38 -57 -49 0 -12 -41 -47 -57 -48 -6 0
-14 -14 -18 -30 -4 -17 -11 -28 -16 -25 -12 8 -22 -39 -14 -64 3 -11 1 -48 -6
-82 -10 -51 -10 -62 2 -70 25 -16 33 -10 14 11 -23 26 -10 26 22 0 31 -25 41
-19 23 14 -7 14 -10 33 -6 43 7 16 9 16 26 -7 17 -23 18 -55 3 -82 -7 -12 -49
-9 -80 5 -110 53 -128 65 -147 103 -25 48 -55 75 -79 70 -9 -2 -15 -1 -12 3 7
13 -37 60 -51 54 -8 -3 -14 -10 -14 -17 1 -15 36 -56 48 -56 5 0 13 -11 16
-25 6 -24 36 -36 36 -15 0 5 6 7 14 4 8 -3 12 -13 9 -23 -6 -23 19 -43 122
-97 59 -30 99 -44 116 -42 25 4 26 2 18 -25 -5 -17 -27 -61 -49 -99 -66 -110
-78 -143 -72 -196 l5 -47 -46 51 c-26 28 -61 57 -79 64 -18 6 -40 15 -48 19
-8 5 -36 2 -61 -4 -35 -10 -50 -10 -59 -1 -8 8 -10 7 -5 -5 4 -12 -5 -23 -30
-38 -45 -26 -48 -26 -40 0 5 14 1 25 -12 34 -17 14 -17 14 7 15 14 0 31 4 39
9 11 7 7 13 -18 25 -17 9 -31 20 -31 24 0 5 -7 17 -16 28 -13 16 -15 16 -10 2
7 -23 -5 -23 -36 1 -25 20 -71 106 -118 220 -15 36 -32 67 -39 69 -8 3 -7 -6
3 -30 8 -18 26 -63 39 -99 22 -60 23 -68 9 -94 -8 -15 -25 -38 -38 -50 -26
-24 -22 -40 7 -24 14 7 19 6 19 -4 0 -7 14 -23 31 -36 43 -32 30 -36 -22 -6
-50 27 -116 38 -112 18 3 -13 -2 -14 -62 -18 -16 -1 -31 -7 -33 -14 -2 -6 -8
-9 -13 -6 -5 3 -26 -11 -46 -32 -32 -31 -38 -44 -38 -79 0 -28 8 -53 23 -73
16 -23 19 -31 9 -31 -8 0 -20 -6 -26 -13 -8 -11 -6 -18 9 -32 27 -25 25 -41
-2 -23 -69 45 -134 43 -186 -5 l-25 -22 12 22 c10 19 9 22 -4 17 -8 -4 -15 -3
-15 0 0 4 21 16 46 27 35 16 57 19 93 14 36 -5 50 -3 60 8 10 13 7 16 -19 22
-17 4 -48 4 -70 0 -37 -6 -40 -5 -40 15 0 36 -52 77 -107 83 -26 3 -53 1 -59
-4 -9 -7 -35 -14 -65 -18 -3 -1 -11 -12 -17 -25 -10 -22 -8 -25 31 -40 45 -18
93 -53 84 -62 -3 -3 -24 7 -48 22 -24 15 -63 29 -88 32 -39 4 -42 6 -22 14 51
18 -13 54 -76 42 -41 -8 -42 -19 -3 -39 30 -15 40 -35 19 -35 -6 0 -24 10 -41
21 -40 29 -99 30 -136 2 -27 -20 -32 -21 -43 -7 -12 14 -61 44 -74 44 -3 0 -5
-7 -5 -15 0 -9 9 -15 24 -15 14 0 27 -4 30 -9 4 -5 -9 -5 -30 -1 -44 10 -154
-4 -166 -22 -4 -7 -8 -38 -7 -68 1 -52 -7 -84 -38 -157 -17 -41 -16 -91 2
-127 8 -15 15 -36 15 -46 0 -10 17 -33 39 -53 37 -34 38 -35 22 -61 -16 -27
-30 -32 -47 -17 -5 5 -19 12 -31 16 -20 6 -23 3 -23 -25 0 -26 3 -30 19 -25
14 4 23 0 31 -15 13 -25 6 -40 -21 -40 -11 0 -19 -7 -19 -17 0 -14 8 -18 34
-18 28 0 39 8 68 45 69 90 174 135 266 112 117 -28 138 -27 108 7 -36 42 -45
120 -20 179 34 83 97 124 193 126 36 1 76 7 88 14 33 18 84 14 122 -9 41 -25
35 -37 -8 -15 -31 17 -83 20 -114 7 -17 -6 -16 -8 7 -20 34 -19 76 -81 87
-129 5 -23 23 -54 42 -73 19 -19 36 -41 39 -49 4 -12 12 -9 39 14 88 74 207
76 285 4 21 -18 22 -18 72 7 87 44 195 66 297 60 l90 -5 -105 15 c-123 17
-268 50 -319 73 -62 28 -101 71 -101 112 l0 36 -42 -4 c-42 -3 -43 -2 -18 12
14 9 37 15 51 16 14 0 52 14 84 32 60 32 180 68 224 67 25 0 26 0 4 -9 -13 -5
-44 -12 -70 -15 -27 -3 -76 -19 -111 -36 -71 -35 -79 -50 -11 -20 104 46 222
66 495 86 67 4 83 3 88 -10 4 -13 -9 -15 -90 -15 -180 0 -409 -37 -492 -79
-46 -24 -76 -56 -69 -75 7 -18 109 -68 145 -71 16 -1 33 -4 38 -7 32 -19 228
-47 376 -52 102 -4 137 -14 102 -27 -13 -5 -1 -8 36 -10 l55 -2 -50 -7 c-27
-5 -75 -9 -106 -9 -31 -1 -59 -4 -62 -8 -4 -3 -35 -5 -70 -4 -39 1 -73 -3 -90
-12 l-27 -14 24 -17 c14 -9 29 -16 35 -16 5 0 12 -7 15 -15 4 -11 15 -14 33
-11 16 2 34 5 41 5 6 1 12 8 12 16 0 8 7 15 15 15 8 0 15 4 15 9 0 15 66 41
105 41 l37 0 -26 -30 c-23 -28 -56 -114 -56 -147 0 -9 8 -11 24 -7 29 7 42 -9
21 -26 -8 -7 -17 -27 -21 -45 -5 -26 -12 -34 -35 -39 l-29 -5 33 -52 c27 -44
32 -62 32 -114 0 -52 -5 -70 -33 -115 -25 -40 -28 -51 -15 -45 54 22 83 24
158 14 100 -13 132 -27 172 -72 38 -43 56 -103 47 -152 -8 -46 -54 -108 -104
-141 -22 -15 -40 -28 -40 -30 0 -2 19 3 41 11 55 20 125 19 190 -2 40 -13 54
-14 57 -5 6 20 124 99 197 133 85 40 184 49 266 26 59 -17 155 -80 173 -112 6
-11 16 -24 22 -30 27 -26 64 -93 68 -125 3 -19 3 -29 0 -22 -3 6 -15 12 -27
12 -18 0 -20 2 -7 11 13 9 13 10 -2 6 -9 -3 -19 -1 -22 6 -3 9 -5 9 -5 0 -1
-7 11 -20 25 -29 15 -10 24 -24 21 -34 -4 -14 5 -13 63 8 l67 24 -18 53 c-9
29 -20 91 -23 137 -6 109 -16 716 -10 661 3 -23 12 -47 20 -53 11 -10 14 -10
14 0 0 29 45 69 115 103 42 21 86 37 98 38 12 0 -15 11 -61 25 -86 25 -156 56
-167 74 -3 5 -8 22 -10 37 -2 16 -7 37 -10 48 -9 29 29 73 82 96 71 30 74 22
5 -11 -41 -19 -66 -38 -74 -56 -12 -25 -10 -29 25 -59 61 -53 227 -103 412
-124 126 -14 555 -23 530 -11 -14 7 4 8 55 4 49 -4 107 0 170 11 100 17 134
30 63 23 -23 -2 -39 0 -37 4 3 5 -4 8 -15 8 -19 0 -26 11 -22 34 1 4 -3 14 -9
21 -22 26 26 91 61 82 24 -6 26 20 2 27 -30 9 -141 27 -150 24 -22 -6 -143 25
-143 37 0 8 -10 16 -22 18 -13 3 19 5 70 4 50 -1 92 1 92 6 0 4 -19 7 -42 7
-53 0 -46 8 10 11 38 3 40 4 27 19 -21 23 -19 60 3 60 13 0 14 2 3 9 -11 7 -9
11 8 20 19 11 21 9 21 -18 0 -16 5 -33 11 -36 15 -10 40 27 28 41 -5 6 -5 15
-1 19 4 5 1 5 -5 1 -8 -4 -13 -1 -13 8 0 8 6 17 13 19 7 3 5 6 -5 6 -9 1 -21
9 -27 18 -7 13 -4 20 12 28 21 10 24 25 15 67 -2 10 -7 21 -11 24 -4 4 -7 16
-7 27 0 11 -8 26 -17 33 -11 8 -13 13 -5 14 15 0 16 42 0 58 -9 9 -9 12 0 12
8 0 10 9 7 23 -3 12 -7 31 -9 42 -7 44 -19 75 -26 70 -7 -4 -19 21 -25 50 -3
18 -29 70 -46 93 -28 36 -57 140 -64 226 -6 68 -5 78 8 73 17 -7 29 16 21 38
-5 13 -9 13 -22 3 -10 -9 -61 -14 -158 -16 -125 -3 -145 -2 -149 12 -15 47
-19 51 -22 21 -10 -90 -12 -95 -57 -115 -103 -44 -197 -55 -461 -55 -201 0
-267 4 -339 18 -106 22 -216 61 -233 84 -8 10 -13 49 -13 97 -1 56 -4 76 -10
65 -6 -11 -18 -15 -36 -11 -20 4 -25 2 -19 -8 6 -9 3 -10 -13 -1 -11 6 -36 11
-54 11 -19 0 -43 7 -54 15 -23 18 -46 19 -62 3z m-67 -38 c-3 -5 -11 -10 -16
-10 -6 0 -7 5 -4 10 3 6 11 10 16 10 6 0 7 -4 4 -10z m52 -6 c-3 -3 -12 -4
-19 -1 -8 3 -5 6 6 6 11 1 17 -2 13 -5z m-12 -94 c-3 -5 -1 -10 6 -10 7 0 10
-3 6 -6 -9 -9 -28 6 -22 17 4 5 8 9 11 9 3 0 2 -4 -1 -10z m495 -136 c119 -24
498 -30 633 -10 115 17 168 20 151 8 -5 -4 -21 -25 -35 -47 -23 -38 -24 -49
-27 -227 -2 -103 1 -233 7 -290 9 -89 15 -113 49 -178 29 -55 38 -83 35 -106
l-5 -31 -121 -11 c-66 -6 -125 -17 -131 -23 -8 -9 -3 -10 19 -5 50 10 234 16
200 7 l-30 -9 27 -1 c25 -1 52 -21 29 -21 -6 0 -11 -8 -11 -19 0 -19 -36 -71
-49 -71 -4 0 -12 10 -18 22 -9 21 -12 20 -59 -30 -28 -29 -53 -52 -57 -52 -4
0 -7 30 -7 66 l0 67 -77 -6 c-46 -3 -107 -16 -148 -31 l-70 -25 28 24 c25 22
111 55 143 55 7 0 16 5 20 11 5 9 -1 10 -20 5 -15 -4 -26 -2 -26 3 0 6 22 13
50 17 68 9 84 22 71 57 -6 15 -8 33 -5 41 7 18 -57 107 -73 101 -6 -2 -19 8
-29 23 l-17 27 23 -20 23 -20 -13 25 c-7 14 -20 30 -29 37 -11 8 -12 12 -3 13
22 0 13 30 -9 30 -15 0 -19 5 -15 15 4 12 0 14 -19 9 -15 -4 -25 -2 -25 5 0 6
5 11 10 11 6 0 10 4 10 9 0 5 -19 12 -42 16 -24 4 -56 9 -72 11 -30 5 -30 5
-11 -16 13 -14 15 -24 8 -31 -7 -7 -14 -5 -23 6 -12 14 -40 21 -40 10 0 -3 8
-18 18 -32 9 -15 12 -24 5 -20 -6 4 -14 3 -18 -3 -3 -5 6 -12 20 -16 14 -3 25
-11 25 -17 0 -6 -3 -7 -7 -4 -3 4 -15 -1 -26 -10 -19 -17 -20 -17 -14 0 4 11
1 17 -9 17 -8 0 -12 5 -9 10 3 6 2 10 -4 10 -6 0 -8 7 -4 16 4 11 1 15 -13 12
-14 -2 -19 3 -20 21 -2 26 -22 43 -42 36 -8 -3 -10 0 -6 7 5 8 -1 9 -22 4 -16
-4 -32 -12 -35 -18 -4 -6 -10 -4 -16 6 -9 16 -43 13 -43 -4 0 -4 -11 -18 -25
-31 -28 -27 -32 -41 -10 -33 21 9 19 1 -9 -25 l-24 -23 1 24 c0 13 -3 161 -7
331 -5 169 -7 307 -5 307 2 0 38 -7 79 -16z m-920 -60 c0 -8 -4 -12 -10 -9 -5
3 -10 10 -10 16 0 5 5 9 10 9 6 0 10 -7 10 -16z m735 -15 c11 -16 1 -19 -13
-3 -7 8 -8 14 -3 14 5 0 13 -5 16 -11z m535 -469 c13 -8 13 -10 -2 -10 -9 0
-20 5 -23 10 -8 13 5 13 25 0z m-265 -40 c3 -5 1 -10 -4 -10 -6 0 -11 5 -11
10 0 6 2 10 4 10 3 0 8 -4 11 -10z m285 -25 c-7 -9 -15 -13 -18 -10 -3 2 1 11
8 20 7 9 15 13 18 10 3 -2 -1 -11 -8 -20z m897 -12 c-3 -10 -5 -4 -5 12 0 17
2 24 5 18 2 -7 2 -21 0 -30z m123 7 c0 -5 -4 -10 -10 -10 -5 0 -10 5 -10 10 0
6 5 10 10 10 6 0 10 -4 10 -10z m-2693 -56 c-3 -3 -12 -4 -19 -1 -8 3 -5 6 6
6 11 1 17 -2 13 -5z m596 -5 c22 -6 37 -12 35 -14 -5 -6 -55 -6 -93 -1 -16 2
-36 4 -42 5 -7 0 -13 6 -13 11 0 13 65 13 113 -1z m-133 -9 c0 -12 -17 -12
-45 0 -17 7 -15 9 13 9 17 1 32 -3 32 -9z m321 -6 c49 -9 87 -19 85 -22 -6 -5
-186 28 -186 34 0 6 5 5 101 -12z m-1796 -4 c3 -5 1 -10 -4 -10 -6 0 -11 5
-11 10 0 6 2 10 4 10 3 0 8 -4 11 -10z m153 -8 c6 -18 -15 -14 -22 4 -4 10 -1
14 6 12 6 -2 14 -10 16 -16z m1579 -8 c-3 -3 -12 -4 -19 -1 -8 3 -5 6 6 6 11
1 17 -2 13 -5z m56 -11 c-7 -2 -19 -2 -25 0 -7 3 -2 5 12 5 14 0 19 -2 13 -5z
m44 -9 c-3 -3 -12 -4 -19 -1 -8 3 -5 6 6 6 11 1 17 -2 13 -5z m40 -10 c-3 -3
-12 -4 -19 -1 -8 3 -5 6 6 6 11 1 17 -2 13 -5z m-1067 -54 c0 -5 -2 -10 -4
-10 -3 0 -8 5 -11 10 -3 6 -1 10 4 10 6 0 11 -4 11 -10z m-1130 -36 c12 -12
12 -14 -7 -14 -12 0 -24 -4 -28 -9 -7 -12 -74 -2 -99 15 -18 12 -18 13 5 18
13 3 33 7 44 10 29 6 68 -3 85 -20z m3970 -39 c14 -19 14 -19 -2 -6 -10 7 -18
18 -18 24 0 6 1 8 3 6 1 -2 9 -13 17 -24z m-3000 -15 c0 -6 -10 -8 -23 -5 -24
6 -107 -23 -107 -37 0 -5 -10 -8 -22 -8 -20 0 -20 2 -8 14 28 28 75 46 118 46
23 0 42 -5 42 -10z m1060 -10 c0 -5 -4 -10 -10 -10 -5 0 -17 -8 -27 -18 -10
-11 -26 -22 -36 -25 -14 -5 -12 1 9 28 25 33 64 48 64 25z m1727 -6 c-3 -3
-12 -4 -19 -1 -8 3 -5 6 6 6 11 1 17 -2 13 -5z m-247 -18 c0 -9 -30 -14 -35
-6 -4 6 3 10 14 10 12 0 21 -2 21 -4z m187 -2 c-3 -3 -12 -4 -19 -1 -8 3 -5 6
6 6 11 1 17 -2 13 -5z m73 -4 c12 -8 12 -10 -5 -10 -11 0 -27 5 -35 10 -12 8
-12 10 5 10 11 0 27 -5 35 -10z m-1475 -10 c-3 -5 -16 -10 -29 -10 -12 0 -26
-4 -31 -9 -14 -12 -114 -20 -121 -10 -3 5 10 9 28 10 18 0 56 7 83 14 64 16
78 17 70 5z m-350 -44 c11 -2 -16 -4 -60 -4 -44 -1 -75 2 -68 6 11 7 80 6 128
-2z m148 7 c-7 -2 -21 -2 -30 0 -10 3 -4 5 12 5 17 0 24 -2 18 -5z m-330 -10
c-7 -2 -21 -2 -30 0 -10 3 -4 5 12 5 17 0 24 -2 18 -5z m2224 -31 c3 -24 -18
-28 -67 -12 l-25 8 25 2 c14 1 28 2 33 1 4 0 7 6 7 15 0 23 23 11 27 -14z
m-2099 11 c-10 -2 -26 -2 -35 0 -10 3 -2 5 17 5 19 0 27 -2 18 -5z m-23 -23
c19 -8 19 -9 -2 -9 -12 -1 -25 4 -28 9 -7 12 2 12 30 0z m263 -7 c-10 -2 -26
-2 -35 0 -10 3 -2 5 17 5 19 0 27 -2 18 -5z m-361 -19 c-3 -3 -12 -4 -19 -1
-8 3 -5 6 6 6 11 1 17 -2 13 -5z m138 -30 c0 -17 6 -38 13 -47 25 -30 -18
-177 -55 -192 -10 -3 -14 -3 -10 1 4 4 -3 12 -16 18 -12 7 -23 22 -25 36 -1
14 -6 48 -12 75 -5 28 -11 69 -14 92 -5 48 2 52 74 50 43 -2 45 -3 45 -33z
m2110 -2 c17 -10 13 -11 -28 -10 -26 1 -55 7 -65 14 -14 11 -10 12 28 10 25
-1 54 -7 65 -14z m-132 -22 c3 -11 1 -18 -4 -14 -5 3 -9 12 -9 20 0 20 7 17
13 -6z m-3937 -97 c-10 -10 -19 5 -10 18 6 11 8 11 12 0 2 -7 1 -15 -2 -18z
m3557 0 c-7 -2 -19 -2 -25 0 -7 3 -2 5 12 5 14 0 19 -2 13 -5z m257 -3 c0 -5
-12 -10 -26 -10 -14 0 -23 4 -19 10 3 6 15 10 26 10 10 0 19 -4 19 -10z"/>
<path d="M12844 5384 c5 -12 1 -14 -17 -9 -18 6 -20 5 -9 -6 18 -19 82 -20 82
-1 0 8 -6 12 -14 9 -10 -4 -13 -1 -9 9 3 9 -2 14 -17 14 -16 0 -20 -4 -16 -16z"/>
<path d="M13037 5224 c-8 -8 3 -34 14 -34 11 0 12 27 0 34 -4 3 -11 3 -14 0z"/>
<path d="M13338 4793 c7 -3 16 -2 19 1 4 3 -2 6 -13 5 -11 0 -14 -3 -6 -6z"/>
<path d="M12662 5925 c-1 -33 -1 -34 28 -23 44 15 39 44 -8 53 -15 3 -19 -3
-20 -30z"/>
<path d="M13260 5925 c0 -8 8 -18 18 -23 16 -9 257 -30 330 -29 50 0 18 15
-48 22 -30 4 -102 15 -160 26 -126 23 -140 23 -140 4z"/>
<path d="M12885 5906 c-29 -13 -27 -14 35 -11 144 5 146 5 130 15 -22 14 -130
11 -165 -4z"/>
<path d="M12290 5780 c0 -6 7 -10 15 -10 8 0 15 2 15 4 0 2 -7 6 -15 10 -8 3
-15 1 -15 -4z"/>
<path d="M12325 5743 c-11 -2 -27 -7 -35 -10 -16 -6 -27 -9 -48 -11 -19 -3 -5
-21 16 -21 62 -2 91 0 117 8 19 6 23 10 11 10 -10 1 -24 7 -30 14 -6 8 -20 12
-31 10z"/>
<path d="M12220 5602 c0 -4 4 -13 9 -20 7 -11 9 -11 14 1 3 9 -1 18 -9 21 -8
3 -14 2 -14 -2z"/>
<path d="M14826 5434 c-19 -18 -21 -54 -4 -54 6 0 1 -11 -13 -26 -22 -23 -24
-24 -36 -8 -12 16 -13 15 -13 -10 0 -20 4 -27 14 -23 7 3 18 1 24 -5 6 -6 25
-8 47 -4 l36 7 -5 67 c-3 37 -5 68 -5 70 -2 8 -32 -1 -45 -14z m24 -78 c0 -3
-4 -8 -10 -11 -5 -3 -10 -1 -10 4 0 6 5 11 10 11 6 0 10 -2 10 -4z"/>
<path d="M14950 5430 c0 -11 5 -20 10 -20 6 0 10 9 10 20 0 11 -4 20 -10 20
-5 0 -10 -9 -10 -20z"/>
<path d="M14712 5388 c-14 -14 -16 -28 -3 -28 9 0 24 30 18 36 -2 2 -9 -2 -15
-8z"/>
<path d="M14801 5271 c-19 -12 -25 -52 -9 -63 10 -6 10 -8 1 -8 -7 0 -13 -9
-13 -19 0 -11 -11 -28 -25 -39 -14 -11 -25 -25 -25 -31 0 -6 -7 -8 -16 -4 -11
4 -12 8 -4 13 8 5 6 9 -6 14 -10 4 -15 4 -12 0 4 -4 1 -16 -7 -28 -19 -26 -20
-46 -2 -21 16 20 39 12 30 -10 -4 -11 -1 -13 13 -8 18 7 18 6 2 -11 -10 -9
-18 -21 -18 -26 0 -18 -33 -40 -51 -35 -21 7 -27 -11 -6 -18 8 -3 3 -11 -13
-25 -14 -12 -21 -21 -17 -22 5 0 1 -8 -8 -17 -16 -16 -16 -18 1 -31 18 -14 18
-14 1 -8 -16 5 -18 2 -13 -32 3 -20 5 -41 6 -47 0 -5 9 3 19 19 11 17 18 34
15 38 -3 5 -2 8 3 6 4 -1 27 17 51 40 53 52 103 67 212 65 47 0 80 1 73 4 -7
2 -15 21 -19 41 -3 20 -15 52 -26 70 -11 18 -26 54 -32 80 -10 38 -17 47 -41
54 -21 5 -31 3 -40 -9 -10 -13 -12 -10 -11 18 1 19 5 40 9 47 9 14 -2 16 -22
3z m-111 -331 c0 -5 -4 -10 -10 -10 -5 0 -10 5 -10 10 0 6 5 10 10 10 6 0 10
-4 10 -10z"/>
<path d="M14721 5229 c-7 -16 -17 -27 -21 -24 -5 3 -5 -9 1 -27 5 -18 9 -34 9
-35 0 -2 5 -3 10 -3 13 0 9 32 -4 41 -10 8 1 29 16 29 6 0 8 -11 6 -25 -6 -27
1 -32 20 -13 15 15 16 48 2 48 -5 0 -10 6 -10 14 0 27 -16 25 -29 -5z"/>
<path d="M2520 5156 c0 -57 4 -96 10 -96 6 0 10 36 10 89 0 50 -4 93 -10 96
-6 4 -10 -28 -10 -89z"/>
<path d="M3495 5239 c-8 -13 -8 -169 -1 -177 4 -3 6 16 6 41 0 35 4 47 15 47
8 0 15 5 15 10 0 6 -7 10 -15 10 -9 0 -15 9 -15 25 0 14 7 28 15 31 8 4 15 10
15 15 0 13 -27 11 -35 -2z"/>
<path d="M3562 5238 c-18 -23 -20 -178 -2 -178 6 0 10 20 10 44 0 26 5 47 13
50 10 5 10 7 0 12 -19 8 -17 64 2 64 8 0 15 5 15 10 0 14 -26 12 -38 -2z"/>
<path d="M10140 5230 c-12 -8 -12 -10 5 -10 27 0 84 -36 118 -74 l28 -31 -18
30 c-29 48 -55 75 -74 75 -10 0 -21 5 -24 10 -8 12 -16 12 -35 0z"/>
<path d="M1979 5201 c-37 -38 -39 -82 -4 -116 32 -33 83 -34 113 -2 35 37 29
57 -15 56 -31 -2 -33 -3 -10 -6 50 -8 26 -53 -29 -53 -58 0 -85 69 -43 111 21
21 46 22 94 5 17 -7 17 -5 -4 13 -32 29 -67 26 -102 -8z"/>
<path d="M2400 5145 c0 -50 4 -85 10 -85 6 0 10 18 10 40 0 38 2 40 30 40 17
0 30 5 30 10 0 6 -13 10 -30 10 -25 0 -30 4 -30 25 0 21 5 25 30 25 17 0 30 5
30 10 0 6 -18 10 -40 10 l-40 0 0 -85z"/>
<path d="M2832 5218 c-7 -7 -12 -21 -12 -32 0 -20 1 -20 19 3 22 28 55 25 59
-6 2 -16 -11 -38 -44 -73 l-47 -50 57 0 c31 0 56 5 56 10 0 6 -16 10 -36 10
l-36 0 36 40 c40 45 47 84 17 100 -26 13 -54 13 -69 -2z"/>
<path d="M2966 5208 c-9 -12 -16 -41 -16 -63 0 -80 57 -112 100 -57 17 21 21
36 17 65 -10 71 -68 102 -101 55z m74 -17 c24 -47 5 -111 -35 -111 -40 0 -55
75 -22 118 14 18 45 15 57 -7z"/>
<path d="M3102 5218 c-30 -30 3 -77 40 -57 22 12 24 55 2 63 -22 8 -28 8 -42
-6z m48 -30 c0 -15 -32 -21 -40 -7 -13 20 9 43 26 28 8 -6 14 -16 14 -21z"/>
<path d="M3172 5158 c-62 -94 -65 -98 -55 -98 7 0 31 35 101 148 8 12 12 22 8
22 -3 0 -27 -33 -54 -72z"/>
<path d="M2270 5191 c0 -11 -6 -22 -12 -25 -10 -5 -10 -7 0 -12 7 -3 12 -24
12 -50 0 -24 5 -44 10 -44 6 0 10 19 10 43 0 24 5 48 12 55 9 9 9 12 0 12 -7
0 -12 9 -12 20 0 11 -4 20 -10 20 -5 0 -10 -9 -10 -19z"/>
<path d="M2690 5191 c0 -11 -6 -22 -12 -25 -10 -5 -10 -7 0 -12 7 -3 12 -24
12 -50 0 -24 5 -44 10 -44 6 0 10 19 10 43 0 24 5 48 12 55 9 9 9 12 0 12 -7
0 -12 9 -12 20 0 11 -4 20 -10 20 -5 0 -10 -9 -10 -19z"/>
<path d="M2150 5155 c-16 -20 -16 -61 0 -80 15 -19 71 -16 78 3 3 9 -2 10 -22
2 -20 -7 -29 -5 -43 8 -16 16 -14 17 30 20 49 3 54 10 37 43 -13 23 -62 26
-80 4z m60 -10 c11 -13 8 -15 -19 -15 -31 0 -42 14 -18 23 20 9 24 8 37 -8z"/>
<path d="M2574 5159 c-5 -9 -1 -10 15 -6 28 7 51 -1 51 -18 0 -7 -9 -11 -22
-8 -13 2 -32 -3 -43 -11 -30 -22 -9 -51 39 -51 l37 -1 -3 51 c-3 48 -4 50 -35
53 -17 2 -34 -2 -39 -9z m66 -58 c0 -15 -29 -33 -45 -27 -28 10 -17 36 15 36
17 0 30 -4 30 -9z"/>
<path d="M3357 5152 c-22 -24 -21 -55 1 -75 36 -33 92 -8 92 41 0 47 -61 69
-93 34z m73 -37 c0 -29 -28 -47 -53 -34 -40 23 -6 90 35 68 10 -5 18 -21 18
-34z"/>
<path d="M3184 5116 c-11 -29 1 -51 28 -54 22 -3 29 2 34 22 3 14 3 30 -1 35
-9 16 -55 13 -61 -3z m49 -10 c8 -20 -20 -43 -35 -28 -14 14 -3 42 16 42 7 0
16 -6 19 -14z"/>
<path d="M15630 5057 c0 -7 6 -22 14 -32 8 -12 12 -33 9 -55 -4 -30 0 -26 21
25 31 72 31 68 7 60 -11 -3 -22 -1 -26 5 -9 14 -25 13 -25 -3z"/>
<path d="M15018 4953 c7 -3 16 -2 19 1 4 3 -2 6 -13 5 -11 0 -14 -3 -6 -6z"/>
<path d="M11265 4801 c22 -11 54 -22 70 -26 21 -4 17 0 -15 13 -62 27 -104 36
-55 13z"/>
<path d="M14724 4785 c-15 -14 -23 -25 -17 -25 9 0 53 37 53 45 0 10 -10 4
-36 -20z"/>
<path d="M14566 4749 c-22 -21 -41 -26 -30 -6 6 9 4 9 -8 -1 -8 -7 -22 -10
-31 -6 -21 7 -32 -13 -16 -32 10 -12 10 -17 -1 -27 -10 -9 -11 -9 -6 1 5 7 1
12 -9 12 -11 0 -15 -5 -12 -14 3 -8 -1 -17 -9 -20 -8 -3 -13 -11 -12 -18 2 -7
-3 -12 -9 -13 -17 0 -16 -16 1 -36 10 -12 11 -20 4 -27 -16 -16 80 11 130 37
32 16 42 27 42 46 0 13 -5 27 -10 30 -7 4 -8 24 -4 51 7 50 6 50 -20 23z m-6
-89 c0 -39 -17 -47 -22 -10 -3 17 -1 30 4 30 5 0 6 5 2 12 -4 7 -3 8 4 4 7 -4
12 -20 12 -36z"/>
<path d="M3037 4754 c-4 -4 -7 -110 -7 -236 l0 -228 35 0 35 0 0 99 c0 111 9
131 60 131 41 0 50 -24 50 -134 l0 -96 30 0 30 0 0 115 c0 110 -1 117 -25 140
-28 29 -88 34 -122 10 l-22 -16 -3 108 c-3 107 -3 108 -28 111 -14 2 -29 0
-33 -4z"/>
<path d="M14995 4752 c-27 -6 -64 -32 -46 -32 14 0 6 -15 -7 -15 -13 0 -32
-16 -32 -26 0 -6 4 -8 9 -4 5 3 12 1 16 -5 3 -5 -3 -10 -14 -10 -11 0 -22 -4
-25 -9 -7 -11 22 -23 35 -15 5 3 9 -2 9 -10 0 -9 7 -16 16 -16 11 0 14 -5 10
-16 -3 -9 -6 -17 -6 -20 0 -2 -11 1 -25 6 -15 6 -25 6 -25 0 0 -5 -9 -11 -19
-15 -13 -4 -18 -12 -14 -22 4 -10 2 -14 -4 -10 -7 4 -10 0 -9 -10 2 -9 15 -21
30 -26 32 -11 49 0 23 14 -16 10 -16 12 4 28 15 12 35 17 61 15 32 -3 38 0 38
16 0 24 13 26 30 5 11 -13 10 -14 -4 -9 -9 4 -16 1 -16 -6 0 -6 8 -14 19 -17
15 -4 17 -8 7 -28 -12 -26 -55 -40 -71 -23 -7 8 -5 8 5 3 13 -8 13 -6 2 7 -10
12 -10 17 -1 20 7 2 9 9 5 16 -9 15 -44 -18 -38 -35 2 -7 -1 -13 -7 -13 -6 0
-11 -5 -11 -11 0 -6 9 -8 20 -4 11 4 20 2 20 -4 0 -6 9 -15 20 -21 11 -6 20
-7 19 -3 -3 19 2 33 11 33 11 0 9 -28 -3 -47 -6 -9 -3 -11 7 -7 29 11 16 -14
-13 -27 -16 -7 -27 -17 -24 -23 3 -5 -5 -7 -21 -4 -14 3 -26 1 -26 -4 0 -6 -7
-8 -15 -4 -8 3 -15 1 -15 -4 0 -6 -5 -10 -11 -10 -7 0 -18 -8 -26 -17 -8 -10
-11 -12 -7 -4 5 10 3 12 -5 7 -9 -6 -9 -12 3 -25 9 -10 16 -26 16 -37 0 -11 5
-25 12 -32 9 -9 9 -12 1 -12 -7 0 -15 5 -18 10 -4 6 -12 9 -18 8 -7 -2 -23 8
-36 21 -16 16 -18 22 -8 18 25 -10 30 10 6 27 -12 8 -19 18 -16 23 3 5 -4 10
-16 10 -12 1 -24 -3 -28 -9 -4 -6 -24 12 -48 42 -23 29 -52 61 -65 71 -13 10
-32 35 -42 56 l-18 38 -6 -31 c-12 -54 -19 -58 -52 -24 l-29 31 -47 -17 c-105
-37 -103 -36 -91 -50 6 -8 16 -14 21 -14 20 0 109 -83 104 -96 -8 -22 13 -27
39 -10 33 21 38 9 38 -80 -1 -57 -6 -81 -23 -111 -64 -105 -138 -223 -167
-260 -29 -39 -31 -48 -27 -100 l4 -58 -13 50 -13 50 -8 -35 c-5 -19 -16 -51
-26 -70 -34 -68 -50 -111 -45 -120 3 -4 1 -10 -4 -12 -6 -1 -12 -15 -15 -29
-2 -15 -16 -45 -30 -68 -14 -22 -26 -45 -26 -51 0 -5 -3 -9 -7 -9 -20 3 -34
-2 -28 -10 10 -17 -78 -69 -121 -72 -22 -2 -45 0 -51 4 -6 4 -15 1 -21 -6 -7
-8 0 -29 24 -71 47 -78 63 -155 59 -269 -11 -261 -142 -420 -421 -507 -96 -30
-255 -37 -354 -16 -134 28 -266 112 -306 193 -11 24 -19 63 -20 109 -1 85 -30
176 -91 295 -46 90 -58 157 -40 222 4 17 4 27 -3 27 -5 0 -10 -7 -10 -15 0 -8
-5 -15 -10 -15 -6 0 -21 -11 -34 -25 -13 -14 -29 -25 -36 -25 -8 0 -9 -6 -5
-17 4 -10 10 -44 13 -76 6 -76 -16 -134 -73 -186 -48 -44 -103 -64 -183 -65
-52 -1 -53 -2 -71 -42 l-19 -41 27 5 c14 2 36 15 47 28 30 34 67 31 103 -8 17
-18 31 -38 31 -43 0 -6 21 -31 46 -55 55 -55 89 -109 105 -172 12 -52 27 -59
56 -29 10 10 36 24 59 31 39 12 44 10 124 -30 142 -72 336 -120 480 -120 179
0 363 46 431 107 l39 36 60 -17 c33 -10 107 -21 163 -26 56 -5 162 -21 235
-35 281 -53 506 -79 692 -80 219 0 278 16 263 74 -5 22 -9 23 -57 16 -28 -3
-53 -11 -55 -16 -1 -6 -9 -2 -17 8 -13 17 -13 17 -14 0 0 -16 -6 -18 -50 -13
-27 3 -50 2 -50 -2 0 -4 -14 -7 -30 -8 -17 -1 -30 3 -30 8 0 5 5 6 10 3 6 -3
10 -2 10 4 0 5 -4 13 -10 16 -5 3 -10 1 -10 -4 0 -16 -67 -13 -73 3 -3 7 -1
18 3 22 5 5 -11 9 -39 9 -40 0 -46 -2 -33 -11 9 -7 23 -9 31 -6 10 4 12 1 6
-8 -5 -8 -4 -11 3 -6 16 10 24 -10 8 -23 -10 -8 -17 -6 -31 9 -13 14 -21 17
-26 9 -11 -18 -34 3 -34 30 0 13 -7 27 -15 29 -12 4 -13 2 -3 -9 15 -19 13
-59 -3 -59 -7 0 -16 9 -19 20 -4 13 -14 20 -28 19 -17 -1 -18 -2 -4 -6 28 -7
20 -18 -16 -20 -17 0 -26 1 -19 4 25 10 1 21 -28 13 -19 -5 -28 -5 -25 1 12
18 -6 30 -21 14 -9 -8 -12 -19 -9 -25 9 -15 -12 -12 -27 3 -7 8 -21 12 -31 9
-10 -2 -17 -1 -16 4 4 24 -2 44 -12 39 -6 -4 -8 -13 -5 -21 9 -23 -8 -16 -39
16 -16 16 -31 28 -33 25 -3 -3 7 -16 21 -29 33 -31 35 -51 5 -42 -13 3 -31 6
-40 6 -10 0 -18 7 -18 16 0 14 2 15 17 3 14 -12 16 -12 12 0 -7 22 -25 24 -42
6 -17 -17 -43 -11 -67 15 -18 19 -50 33 -50 21 0 -4 -13 -8 -30 -8 -16 0 -28
3 -26 6 1 3 -5 14 -16 24 -21 20 -23 15 -7 -16 11 -22 11 -22 -12 1 -20 19
-22 25 -11 42 15 24 15 30 2 30 -5 0 -10 -7 -10 -15 0 -10 -9 -14 -30 -12 -32
2 -38 15 -17 36 10 11 8 12 -10 6 -16 -4 -23 -2 -24 7 -4 36 -2 65 5 86 5 13
3 22 -3 22 -6 0 -11 -5 -11 -11 0 -5 -4 -7 -10 -4 -10 6 -2 65 11 79 11 12 12
29 1 22 -4 -2 -8 6 -7 20 0 14 6 29 14 33 7 5 11 14 7 20 -4 6 -1 9 7 5 24 -9
18 45 -6 58 -19 10 -20 11 -3 23 11 8 13 15 7 20 -6 3 -11 15 -11 25 0 11 -11
27 -25 36 -14 9 -22 20 -19 25 3 5 -1 7 -8 4 -7 -3 -19 -1 -26 4 -25 16 15 71
137 189 232 226 469 378 681 438 110 31 119 37 102 64 -17 28 -15 33 6 13 10
-10 17 -24 14 -30 -3 -10 13 -13 58 -13 160 0 361 -108 463 -248 19 -26 57
-89 84 -139 27 -51 66 -111 87 -133 39 -43 64 -54 46 -21 -16 31 -12 41 18 41
22 0 29 6 38 35 9 27 8 37 -4 49 -8 8 -11 19 -8 25 10 16 26 13 20 -3 -3 -8 0
-17 7 -22 7 -4 15 -2 17 5 3 8 8 6 18 -6 11 -13 14 -14 12 -3 -2 10 6 16 23
18 21 2 27 -2 31 -22 3 -13 1 -31 -3 -39 -5 -8 -10 -40 -11 -71 l-3 -56 -33 2
c-18 1 -37 9 -42 18 -8 13 -9 13 -10 -3 0 -15 -3 -16 -21 -7 -39 21 -48 7 -48
-78 0 -43 -5 -101 -11 -128 -10 -45 -117 -253 -164 -316 -11 -15 -18 -30 -15
-32 2 -3 45 -17 94 -31 226 -67 438 -31 488 83 l17 39 78 8 c42 4 122 8 177
10 114 4 164 17 145 39 -9 12 -7 17 9 26 12 6 21 18 21 28 0 9 9 23 20 30 11
7 20 19 20 27 0 8 4 15 9 15 5 0 9 27 9 60 0 33 -3 60 -7 60 -4 0 -7 10 -8 23
-2 18 3 22 25 23 183 7 327 40 368 85 21 23 21 23 -56 3 -56 -14 -63 -14 -86
0 -13 9 -24 23 -24 30 0 8 -14 29 -30 47 -17 17 -29 38 -26 46 3 7 0 13 -8 13
-7 0 -23 11 -37 26 -21 22 -21 24 -4 19 17 -5 16 -4 -2 6 -12 6 -24 22 -27 35
-4 13 -12 24 -19 24 -8 0 -14 8 -14 18 1 60 -4 81 -16 76 -9 -3 -18 9 -26 36
-7 23 -19 44 -27 47 -8 3 -14 14 -14 25 0 10 -4 16 -10 13 -5 -3 -10 1 -10 9
0 8 -7 21 -15 30 -9 8 -15 17 -15 18 1 2 -3 16 -9 31 -6 16 -11 32 -11 36 0 5
-7 14 -15 21 -8 7 -15 20 -15 30 0 9 -18 35 -40 58 -22 22 -40 46 -40 53 0 8
-5 6 -13 -5 -12 -16 -14 -16 -37 6 -42 41 -83 65 -136 81 -55 16 -74 10 -74
-24 0 -18 -26 -34 -49 -30 -7 1 -10 -2 -7 -7 7 -12 -28 -44 -39 -35 -4 5 -5 3
-2 -3 9 -16 -19 -39 -28 -24 -5 8 -12 7 -24 -4 -15 -13 -16 -25 -8 -95 8 -69
3 -180 -8 -169 -2 2 -6 45 -9 96 -4 71 -10 99 -25 121 -11 16 -17 31 -14 35 4
4 0 4 -9 1 -11 -4 -17 2 -23 22 -8 35 -37 62 -75 73 -25 7 -33 5 -49 -16 -23
-29 -31 -30 -65 -3 l-27 21 -20 -21 c-15 -15 -16 -21 -6 -21 8 0 21 -7 28 -17
13 -15 12 -15 -8 -5 -30 17 -35 15 -23 -8 9 -16 8 -18 -5 -14 -10 4 -15 0 -15
-10 0 -28 -20 -17 -27 15 -3 18 -14 34 -27 39 -12 4 -27 14 -33 21 -12 17 -13
50 -1 43 5 -3 15 0 23 6 12 10 18 10 30 0 23 -19 19 6 -5 32 l-20 22 0 -22 c0
-11 -4 -23 -9 -26 -5 -3 -8 5 -7 19 1 30 26 42 42 20 10 -13 17 -14 33 -5 12
6 21 17 21 24 0 18 33 26 54 14 14 -8 19 -5 23 11 3 12 9 21 14 21 5 0 8 3 8
8 -5 30 3 42 27 42 19 0 25 4 20 15 -4 13 -2 14 14 5 25 -13 26 -3 3 23 -10
11 -13 17 -7 14 7 -4 14 2 17 12 3 13 0 18 -8 15 -7 -3 -15 4 -18 15 -4 16 8
28 59 61 66 43 134 119 134 151 0 28 -29 57 -51 52 -14 -4 -19 0 -19 15 0 12
-4 24 -10 27 -5 3 -10 15 -10 26 0 12 -7 19 -20 19 -17 0 -18 -3 -10 -26 11
-29 13 -50 3 -41 -3 4 -12 2 -20 -4 -10 -9 -13 -8 -13 2 0 8 -3 25 -6 39 -5
25 -5 25 12 5 15 -18 16 -18 10 -2 -3 10 -6 29 -6 42 0 15 -7 26 -20 29 -11 3
-28 8 -39 11 -25 7 -45 -42 -36 -87 5 -24 4 -29 -4 -18 -6 8 -11 23 -11 33 0
24 -12 21 -40 -8 -13 -14 -34 -25 -46 -25 -12 0 -25 -6 -27 -12 -8 -19 -28 12
-23 34 2 10 1 17 -3 16 -3 -1 -17 4 -31 12 -23 12 -24 12 -11 -4 11 -13 12
-19 2 -29 -10 -9 -11 -8 -5 7 6 16 3 17 -28 13 -36 -4 -76 10 -77 28 0 6 -16
11 -36 13 -31 3 -35 6 -35 33 0 27 2 29 28 24 26 -5 26 -5 3 5 -16 7 -27 7
-36 0 -9 -8 -15 -8 -20 0 -10 17 -23 11 -27 -12 -3 -21 -7 -22 -95 -20 -80 3
-94 1 -112 -17 -10 -10 -16 -23 -13 -28 4 -4 -3 1 -15 11 -23 19 -31 32 -13
21 5 -3 18 -2 27 4 16 9 14 11 -14 17 -17 3 -34 13 -37 21 -3 8 -10 11 -16 8
-6 -3 -13 0 -16 9 -7 18 -23 24 -49 18z m385 -52 c0 -5 -4 -10 -10 -10 -5 0
-10 5 -10 10 0 6 5 10 10 10 6 0 10 -4 10 -10z m-96 -38 c3 -5 -1 -9 -9 -9 -8
0 -15 4 -15 9 0 4 4 8 9 8 6 0 12 -4 15 -8z m86 -2 c0 -5 -2 -10 -4 -10 -3 0
-8 5 -11 10 -3 6 -1 10 4 10 6 0 11 -4 11 -10z m465 -10 c3 -5 2 -10 -4 -10
-5 0 -13 5 -16 10 -3 6 -2 10 4 10 5 0 13 -4 16 -10z m-675 -74 c0 -4 -9 -1
-19 6 -11 7 -17 16 -15 20 5 8 34 -15 34 -26z m191 19 c-1 -6 -6 -10 -13 -10
-22 0 -19 -23 4 -28 21 -4 21 -4 -3 -6 -32 -1 -47 33 -21 49 20 11 34 9 33 -5z
m-251 -9 c0 -2 -6 -9 -13 -15 -10 -8 -14 -7 -14 4 0 8 6 15 14 15 7 0 13 -2
13 -4z m26 -36 c20 0 17 -34 -6 -61 -16 -19 -19 -20 -13 -5 5 15 3 17 -8 11
-12 -8 -12 -6 0 8 9 11 10 17 2 17 -6 0 -11 8 -11 18 0 22 13 38 18 23 2 -6
10 -11 18 -11z m119 10 c3 -5 1 -10 -4 -10 -6 0 -11 5 -11 10 0 6 2 10 4 10 3
0 8 -4 11 -10z m-22 -30 c10 -16 13 -30 8 -30 -6 0 -17 14 -26 30 -9 17 -12
30 -7 30 4 0 16 -13 25 -30z m70 9 c-8 -8 -13 -7 -18 2 -5 8 -4 10 3 5 7 -4
12 -2 12 5 0 7 3 9 7 6 4 -4 2 -12 -4 -18z m-83 -41 c0 -4 -7 -8 -15 -8 -17 0
-18 -2 -9 -24 3 -9 10 -13 15 -10 5 3 9 1 9 -5 0 -15 -16 -22 -33 -15 -9 3
-13 12 -11 19 3 7 1 16 -5 20 -22 13 -11 32 19 32 17 0 30 -4 30 -9z m-390
-383 c0 -9 -6 -12 -15 -9 -8 4 -15 10 -15 15 0 5 7 9 15 9 8 0 15 -7 15 -15z
m4 -54 c-6 -6 -34 20 -34 32 0 6 8 2 19 -9 10 -10 17 -21 15 -23z m195 -8 c10
-10 21 -26 24 -35 8 -22 57 -25 57 -3 0 17 9 19 29 6 7 -5 11 -13 7 -19 -3 -6
4 -14 16 -18 27 -8 34 -6 30 10 -3 8 0 8 9 -1 9 -9 17 -8 36 4 22 15 23 14 17
-3 -4 -11 -14 -25 -23 -33 -17 -15 -13 -14 35 6 10 4 7 -3 -7 -18 -23 -23 -59
-33 -59 -16 0 4 -4 6 -9 2 -5 -3 -13 -1 -16 5 -5 8 -11 7 -21 -1 -13 -11 -18
-6 -15 14 1 5 -3 6 -9 2 -5 -3 -10 -3 -10 2 0 4 -4 14 -9 22 -7 11 -13 10 -35
-4 -25 -17 -28 -17 -44 -1 -14 13 -14 20 -4 36 11 18 10 19 -15 9 -43 -16 -58
-4 -31 25 28 30 25 30 47 9z m-196 -20 c-1 -6 4 -14 12 -17 8 -3 15 -2 15 3 0
4 20 8 44 7 39 0 44 -3 44 -23 0 -12 -4 -20 -8 -18 -5 3 -11 -7 -14 -23 -9
-39 -35 -53 -67 -36 -18 10 -20 13 -6 14 9 0 17 6 17 13 0 6 3 22 6 35 4 12 2
22 -2 22 -16 -1 -45 -28 -48 -43 -1 -8 -8 -23 -16 -32 -11 -13 -11 -21 -2 -35
17 -28 -14 -20 -34 9 -15 21 -15 22 1 19 22 -4 29 28 8 36 -17 7 -11 47 10 72
14 15 43 13 40 -3z m520 -26 c-2 -4 -5 -7 -8 -7 -3 0 -12 0 -21 0 -8 0 -13 4
-10 9 7 10 42 8 39 -2z m-333 -77 c0 -5 -5 -10 -11 -10 -5 0 -7 5 -4 10 3 6 8
10 11 10 2 0 4 -4 4 -10z m120 -18 c0 -8 -3 -12 -7 -9 -3 4 -12 2 -20 -4 -11
-9 -12 -7 -9 12 3 13 5 25 5 26 3 10 31 -13 31 -25z m290 -4 c0 -5 -9 -4 -20
2 -11 6 -20 12 -20 14 0 2 9 2 20 -1 11 -3 20 -9 20 -15z m-347 -18 c-4 -16
-2 -19 11 -14 8 3 22 -1 30 -9 14 -13 13 -15 -2 -19 -10 -3 -23 1 -30 8 -6 7
-21 11 -32 9 -11 -2 -20 1 -20 6 0 6 -4 7 -10 4 -12 -7 -12 -3 -4 19 5 12 10
14 19 6 9 -8 14 -6 19 5 8 23 25 9 19 -15z m687 15 c0 -8 -2 -15 -4 -15 -2 0
-11 -3 -19 -6 -12 -4 -14 0 -10 15 6 24 33 29 33 6z m-556 -36 c-9 -11 -19
-17 -21 -15 -8 7 21 45 30 39 4 -3 1 -14 -9 -24z m-374 -24 c0 -2 -15 1 -32 6
-18 5 -34 9 -36 9 -2 0 0 4 3 10 6 9 65 -13 65 -25z m335 15 c3 -5 1 -10 -4
-10 -6 0 -11 5 -11 10 0 6 2 10 4 10 3 0 8 -4 11 -10z m1025 -225 c-6 -15 -13
-25 -16 -23 -2 3 1 17 7 32 16 34 23 27 9 -9z m107 -121 c-9 -9 -28 6 -21 18
4 6 10 6 17 -1 6 -6 8 -13 4 -17z m-359 -38 c6 -14 27 -43 47 -64 41 -46 47
-67 9 -31 -26 24 -84 102 -84 113 0 15 18 3 28 -18z m-28 -48 c0 -11 -14 -10
-45 2 l-27 10 24 19 c23 19 23 19 35 -2 7 -12 12 -25 13 -29z m450 41 c0 -6 9
-9 19 -6 12 3 22 -1 25 -10 4 -9 14 -13 26 -10 24 6 38 -11 15 -19 -12 -5 -13
-9 -4 -20 6 -8 19 -14 28 -15 10 0 7 -4 -8 -10 -26 -10 -36 -5 -55 31 -6 12
-27 28 -46 36 l-35 14 25 -20 c14 -11 20 -20 14 -20 -6 0 -18 8 -27 18 -13 14
-14 21 -5 30 15 15 28 15 28 1z m-70 -24 c-7 -8 -17 -15 -22 -15 -6 0 -5 7 2
15 7 8 17 15 22 15 6 0 5 -7 -2 -15z m30 -25 c0 -5 -4 -10 -10 -10 -5 0 -10 5
-10 10 0 6 5 10 10 10 6 0 10 -4 10 -10z m-70 -30 c8 -16 8 -18 -4 -14 -17 6
-30 34 -16 34 5 0 14 -9 20 -20z m97 5 c0 -17 -13 -20 -21 -6 -4 5 0 12 6 14
7 3 13 6 14 6 0 1 1 -6 1 -14z m4 -25 c5 0 9 -4 9 -10 0 -16 -26 -12 -41 7
-12 15 -12 16 4 10 10 -4 23 -7 28 -7z m63 -11 c-3 -5 -10 -7 -15 -3 -5 3 -7
10 -3 15 3 5 10 7 15 3 5 -3 7 -10 3 -15z m36 -9 c0 -5 -4 -10 -10 -10 -5 0
-10 5 -10 10 0 6 5 10 10 10 6 0 10 -4 10 -10z m-54 -39 c-12 -19 -24 -12 -19
10 4 13 9 17 15 11 6 -6 7 -15 4 -21z m-36 -11 c0 -5 -5 -10 -11 -10 -5 0 -7
5 -4 10 3 6 8 10 11 10 2 0 4 -4 4 -10z m-385 -123 c0 -7 10 -11 22 -10 16 2
21 -1 16 -13 -3 -8 4 -25 16 -38 17 -18 19 -25 9 -29 -7 -3 -3 -4 10 -4 12 1
22 7 22 14 0 7 6 13 14 13 21 0 39 -28 33 -52 -4 -14 2 -31 19 -50 13 -16 24
-34 24 -40 0 -5 9 -23 20 -38 27 -38 9 -47 -36 -19 l-36 22 4 -44 c4 -35 0
-49 -19 -72 -13 -16 -23 -24 -23 -19 0 5 -8 13 -17 16 -10 4 -14 4 -10 0 9 -9
-22 -44 -40 -44 -7 0 -13 1 -13 3 1 10 31 100 40 116 14 26 1 27 -47 4 -34
-16 -36 -16 -49 2 -12 16 -12 22 2 43 19 29 14 35 -18 23 -15 -5 -30 -5 -41 0
-23 13 -22 38 1 33 16 -4 52 11 42 18 -3 2 -18 10 -35 19 -16 9 -29 21 -27 27
1 7 -4 12 -10 12 -7 0 -5 5 5 11 10 6 30 8 43 5 23 -6 24 -8 9 -23 -13 -13
-14 -17 -3 -24 8 -5 15 -2 20 11 4 11 12 20 18 20 5 0 1 15 -10 33 -11 17 -20
39 -19 47 0 9 4 5 9 -7 5 -13 14 -23 20 -23 7 0 7 6 0 21 -9 16 -8 25 6 40 17
19 29 18 29 -4z m-95 3 c0 -5 -5 -10 -11 -10 -5 0 -7 5 -4 10 3 6 8 10 11 10
2 0 4 -4 4 -10z m214 -39 c3 -4 -6 -6 -19 -3 -16 3 -25 0 -25 -9 0 -7 -3 -10
-6 -6 -3 3 -3 10 1 16 7 13 42 15 49 2z m-149 -271 c3 -5 -1 -10 -10 -10 -9 0
-13 5 -10 10 3 6 8 10 10 10 2 0 7 -4 10 -10z m-3247 -107 c-6 -29 -23 -16
-29 22 l-7 39 20 -24 c10 -13 18 -30 16 -37z m1678 -221 c-4 -3 -14 2 -24 12
-16 18 -16 18 6 6 13 -6 21 -14 18 -18z"/>
<path d="M14990 4040 c0 -5 5 -10 10 -10 6 0 10 5 10 10 0 6 -4 10 -10 10 -5
0 -10 -4 -10 -10z"/>
<path d="M15960 3070 c0 -5 5 -10 10 -10 6 0 10 5 10 10 0 6 -4 10 -10 10 -5
0 -10 -4 -10 -10z"/>
<path d="M15990 2987 c0 -7 10 -18 22 -26 18 -11 22 -11 30 3 11 19 35 21 41
4 2 -7 8 -10 12 -6 4 4 2 14 -5 23 -16 19 -100 21 -100 2z"/>
<path d="M11478 4743 c7 -3 16 -2 19 1 4 3 -2 6 -13 5 -11 0 -14 -3 -6 -6z"/>
<path d="M15261 4736 c-7 -8 -8 -17 -3 -20 6 -3 13 1 16 10 9 23 2 28 -13 10z"/>
<path d="M11748 4733 c7 -3 16 -2 19 1 4 3 -2 6 -13 5 -11 0 -14 -3 -6 -6z"/>
<path d="M15096 4731 c-3 -5 1 -11 9 -14 9 -4 12 -1 8 9 -6 16 -10 17 -17 5z"/>
<path d="M15207 4723 c-13 -12 -7 -23 13 -23 11 0 20 7 20 15 0 15 -21 21 -33
8z"/>
<path d="M3676 4708 c-23 -7 -58 -29 -86 -57 -59 -57 -77 -119 -59 -203 15
-69 82 -140 149 -158 95 -26 199 15 247 98 23 39 28 59 28 112 -1 102 -55 177
-149 205 -56 17 -75 17 -130 3z m135 -73 c45 -24 69 -71 69 -134 0 -65 -26
-112 -74 -135 -68 -32 -149 -11 -186 49 -27 44 -27 126 0 170 37 60 127 83
191 50z"/>
<path d="M1950 4500 l0 -210 35 0 35 0 0 95 0 95 75 0 75 0 0 30 0 30 -75 0
-75 0 0 55 0 55 80 0 80 0 0 30 0 30 -115 0 -115 0 0 -210z"/>
<path d="M5215 4690 c-4 -12 -1 -27 5 -35 27 -33 78 -5 65 35 -4 14 -15 20
-35 20 -20 0 -31 -6 -35 -20z"/>
<path d="M5850 4500 l0 -210 35 0 35 0 0 95 0 95 75 0 75 0 0 30 0 30 -75 0
-75 0 0 55 0 55 80 0 80 0 0 30 0 30 -115 0 -115 0 0 -210z"/>
<path d="M6695 4690 c-4 -12 -1 -27 5 -35 27 -33 78 -5 65 35 -4 14 -15 20
-35 20 -20 0 -31 -6 -35 -20z"/>
<path d="M6870 4610 c0 -47 -2 -50 -25 -50 -20 0 -25 -5 -25 -25 0 -20 5 -25
25 -25 l25 0 0 -110 0 -110 30 0 30 0 0 110 0 110 25 0 c20 0 25 5 25 25 0 20
-5 25 -25 25 -23 0 -25 3 -25 50 0 49 -1 50 -30 50 -29 0 -30 -1 -30 -50z"/>
<path d="M15686 4614 c-18 -17 -20 -24 -8 -24 4 0 13 9 20 20 15 24 9 26 -12
4z"/>
<path d="M13170 4571 c19 -11 42 -20 50 -20 18 0 -25 24 -60 33 -19 5 -16 2
10 -13z"/>
<path d="M2326 4553 c-13 -13 -20 -15 -23 -5 -3 6 -18 12 -34 12 l-29 0 0
-135 0 -135 30 0 30 0 0 83 c0 102 13 132 59 133 35 0 57 24 47 50 -8 20 -58
18 -80 -3z"/>
<path d="M2501 4553 c-90 -46 -90 -204 0 -250 55 -29 150 -11 192 35 18 19 17
20 -12 30 -24 9 -32 7 -47 -9 -25 -28 -98 -26 -118 3 -31 44 -23 48 90 48
l107 0 -6 46 c-7 68 -48 106 -119 111 -37 3 -63 -2 -87 -14z m121 -50 c36 -32
23 -43 -52 -43 -38 0 -70 3 -70 8 0 4 7 18 16 30 19 27 78 30 106 5z"/>
<path d="M2811 4557 c-14 -6 -29 -25 -34 -40 -13 -39 12 -72 78 -104 43 -20
55 -30 55 -48 0 -42 -52 -41 -101 1 -14 12 -18 11 -35 -7 -18 -20 -18 -21 6
-40 14 -10 42 -24 62 -30 76 -24 154 36 132 100 -6 17 -31 38 -74 61 -36 19
-65 42 -65 50 0 22 51 25 82 5 13 -9 26 -15 27 -13 1 2 8 11 15 20 11 15 9 20
-21 38 -37 22 -91 26 -127 7z"/>
<path d="M4106 4553 c-13 -13 -20 -15 -23 -5 -3 6 -18 12 -34 12 l-29 0 0
-135 0 -135 30 0 30 0 0 83 c0 102 13 132 59 133 35 0 57 24 47 50 -8 20 -58
18 -80 -3z"/>
<path d="M4285 4556 c-39 -17 -64 -54 -71 -109 -16 -116 97 -196 194 -137 l32
20 0 -35 c0 -82 -109 -123 -148 -55 -12 22 -24 30 -44 30 -35 0 -37 -26 -6
-65 43 -55 121 -69 189 -34 60 30 69 60 69 239 l0 150 -30 0 c-24 0 -30 -4
-31 -22 0 -13 -3 -17 -6 -10 -7 19 -58 42 -90 42 -15 -1 -42 -7 -58 -14z m126
-65 c63 -63 13 -165 -72 -146 -37 8 -59 40 -59 85 0 39 13 61 45 78 33 18 55
14 86 -17z"/>
<path d="M4612 4555 c-29 -13 -32 -17 -22 -36 8 -14 17 -18 28 -13 9 4 35 9
58 12 47 4 74 -15 74 -54 0 -22 -3 -24 -22 -17 -13 4 -44 8 -70 8 -88 0 -131
-83 -73 -140 28 -29 99 -34 131 -10 25 19 34 19 34 0 0 -10 10 -15 31 -15 l31
0 -4 115 c-3 102 -5 117 -25 137 -28 28 -122 35 -171 13z m118 -145 c36 -19
-6 -80 -57 -80 -24 0 -53 24 -53 45 0 37 66 59 110 35z"/>
<path d="M4995 4558 c-11 -6 -23 -16 -27 -22 -5 -7 -8 -4 -8 7 0 13 -8 17 -35
17 l-35 0 0 -135 0 -135 35 0 35 0 0 99 c0 111 9 131 60 131 41 0 50 -24 50
-134 l0 -96 30 0 30 0 0 115 c0 110 -1 117 -25 140 -26 27 -75 33 -110 13z"/>
<path d="M5422 4551 c-41 -26 -72 -77 -72 -119 0 -84 57 -142 142 -142 75 0
98 13 98 55 l0 36 -26 -20 c-74 -58 -178 16 -143 101 12 30 54 58 86 58 10 0
33 -9 51 -20 l32 -20 0 29 c0 39 -21 54 -83 58 -40 3 -60 -1 -85 -16z"/>
<path d="M6236 4553 c-13 -13 -20 -15 -23 -5 -3 6 -18 12 -34 12 l-29 0 0
-135 0 -135 30 0 30 0 0 83 c0 102 13 132 59 133 35 0 57 24 47 50 -8 20 -58
18 -80 -3z"/>
<path d="M7051 4557 c-14 -6 -29 -25 -34 -40 -13 -39 12 -72 78 -104 43 -20
55 -30 55 -48 0 -42 -52 -41 -101 1 -14 12 -18 11 -35 -7 -18 -20 -18 -21 6
-40 14 -10 42 -24 62 -30 76 -24 154 36 132 100 -6 17 -31 38 -74 61 -36 19
-65 42 -65 50 0 22 51 25 82 5 13 -9 26 -15 27 -13 1 2 8 11 15 20 11 15 9 20
-21 38 -37 22 -91 26 -127 7z"/>
<path d="M5220 4425 l0 -135 30 0 30 0 0 135 0 135 -30 0 -30 0 0 -135z"/>
<path d="M6372 4451 c3 -100 5 -112 27 -135 32 -33 100 -37 131 -6 l20 20 0
-20 c0 -16 7 -20 30 -20 l30 0 0 135 0 135 -30 0 -30 0 0 -92 c0 -51 -4 -98
-8 -105 -15 -24 -58 -33 -81 -17 -19 14 -21 25 -21 115 l0 99 -36 0 -36 0 4
-109z"/>
<path d="M6700 4425 l0 -135 30 0 30 0 0 135 0 135 -30 0 -30 0 0 -135z"/>
<path d="M14820 4540 c0 -11 4 -20 9 -20 6 0 9 9 8 20 -1 11 -5 20 -9 20 -4 0
-8 -9 -8 -20z"/>
<path d="M16545 4500 c3 -5 -1 -10 -10 -10 -9 0 -13 -4 -10 -10 3 -5 -1 -10
-9 -10 -9 0 -16 5 -16 10 0 6 -5 10 -11 10 -6 0 -9 -6 -6 -14 4 -9 -1 -17 -11
-19 -16 -4 -15 -5 1 -6 9 0 17 -5 17 -10 0 -5 16 -9 36 -9 29 0 37 5 45 25 6
18 6 30 -2 39 -13 16 -33 19 -24 4z"/>
<path d="M13368 4483 c7 -3 16 -2 19 1 4 3 -2 6 -13 5 -11 0 -14 -3 -6 -6z"/>
<path d="M14889 4462 c-13 -11 -29 -17 -34 -15 -19 6 -14 -33 6 -45 14 -9 18
-9 17 -1 -2 6 3 14 10 16 8 3 10 -1 6 -11 -4 -10 -1 -16 9 -16 18 0 30 41 15
55 -7 7 -12 6 -15 -2 -3 -7 -10 -13 -16 -13 -7 1 -1 10 12 21 31 25 22 35 -10
11z"/>
<path d="M13660 4458 c0 -8 29 -9 103 -5 56 3 122 2 147 -3 51 -9 142 -2 134
11 -8 14 -384 11 -384 -3z"/>
<path d="M14946 4441 c-4 -7 -5 -15 -2 -18 9 -9 19 4 14 18 -4 11 -6 11 -12 0z"/>
<path d="M9191 4406 c-9 -11 -8 -18 6 -32 17 -17 18 -17 21 5 5 30 -11 46 -27
27z"/>
<path d="M9290 4411 c0 -5 5 -13 10 -16 6 -3 10 -2 10 4 0 5 -4 13 -10 16 -5
3 -10 2 -10 -4z"/>
<path d="M9817 4393 c-14 -13 -6 -21 28 -27 27 -5 43 -17 63 -46 30 -44 42
-50 42 -21 0 11 -21 38 -47 60 -46 39 -72 49 -86 34z"/>
<path d="M16098 4323 c-14 -3 -8 -18 33 -85 27 -45 49 -86 49 -91 0 -5 16 15
35 44 32 46 34 54 21 67 -13 13 -17 13 -31 -2 -19 -19 -35 -21 -35 -5 0 6 -7
8 -16 5 -8 -3 -12 -2 -9 4 3 6 0 13 -8 16 -9 3 -12 14 -9 30 4 24 2 26 -30 17z"/>
<path d="M16626 4270 c-9 -22 -16 -47 -16 -54 0 -24 -34 -12 -49 17 -21 41
-23 27 -4 -28 l16 -48 39 41 c29 32 38 49 38 77 0 19 -2 35 -4 35 -2 0 -11
-18 -20 -40z"/>
<path d="M14845 4270 c3 -5 11 -10 16 -10 6 0 7 5 4 10 -3 6 -11 10 -16 10 -6
0 -7 -4 -4 -10z"/>
<path d="M9344 4165 c11 -8 25 -15 32 -15 6 0 14 -7 18 -15 4 -13 2 -14 -14
-5 -21 11 -29 -3 -9 -16 6 -3 9 -19 7 -35 -3 -16 -4 -29 -3 -29 9 0 105 98
105 107 0 20 -19 25 -41 9 -18 -12 -26 -13 -61 0 -51 18 -58 17 -34 -1z"/>
<path d="M11216 4135 c-3 -8 -1 -15 4 -15 13 0 22 18 11 24 -5 3 -11 -1 -15
-9z"/>
<path d="M15680 4080 c0 -5 5 -10 11 -10 5 0 7 5 4 10 -3 6 -8 10 -11 10 -2 0
-4 -4 -4 -10z"/>
<path d="M9357 4003 c-4 -3 -7 -13 -7 -22 1 -13 3 -13 11 2 11 19 8 33 -4 20z"/>
<path d="M10265 4000 c3 -5 12 -7 20 -3 21 7 19 13 -6 13 -11 0 -18 -4 -14
-10z"/>
<path d="M11023 4003 c-24 -2 -43 -6 -43 -9 0 -15 31 -62 45 -67 8 -4 15 -16
15 -27 0 -12 -4 -19 -9 -16 -4 3 -8 -25 -7 -62 1 -53 -4 -74 -21 -103 -13 -20
-23 -38 -23 -40 0 -8 155 3 164 11 4 5 -10 27 -31 50 -22 22 -45 58 -52 79
-15 52 -13 121 4 151 16 28 19 41 8 38 -5 -1 -27 -3 -50 -5z"/>
<path d="M10392 3971 c-10 -6 -10 -10 2 -20 22 -19 40 -10 24 11 -8 11 -18 15
-26 9z"/>
<path d="M10456 3934 c-4 -11 -2 -15 8 -11 8 3 22 -3 31 -13 16 -18 16 -18 -7
-13 -20 6 -22 5 -9 -10 8 -10 10 -24 6 -34 -7 -15 -9 -13 -14 12 -6 29 -9 30
-94 44 -67 12 -90 12 -99 3 -19 -19 7 -37 46 -34 27 3 41 -3 65 -27 31 -30 40
-51 21 -51 -5 0 -10 6 -10 13 0 8 -11 20 -25 27 -13 7 -22 17 -18 23 3 5 -4 6
-18 2 -32 -10 -31 -7 -14 -48 15 -36 15 -37 -15 -59 -22 -16 -29 -27 -25 -42
5 -16 1 -14 -12 7 -10 15 -23 27 -30 27 -7 0 -13 4 -13 10 0 6 9 6 25 0 25 -9
25 -9 9 15 -13 20 -20 23 -30 14 -9 -7 -14 -8 -14 -1 0 6 6 12 12 14 9 3 8 12
-6 32 -9 15 -19 26 -22 24 -2 -3 -10 -48 -18 -101 -8 -53 -20 -106 -26 -117
-6 -11 -8 -25 -5 -30 3 -6 2 -10 -3 -10 -6 0 -12 7 -16 15 -8 21 -34 19 -48
-5 -16 -25 -30 -25 -51 -2 -20 22 -22 42 -5 42 6 0 8 -3 5 -7 -9 -8 12 -33 28
-33 7 0 15 9 18 20 5 21 31 27 42 10 9 -15 25 -12 25 4 0 8 -5 27 -11 43 -8
22 -12 25 -20 13 -8 -12 -9 -11 -5 5 5 19 -13 87 -27 101 -4 4 -9 -1 -13 -10
-3 -9 -13 -16 -21 -16 -10 0 -13 6 -9 17 4 10 4 14 0 10 -4 -4 -17 1 -28 11
-25 22 -56 35 -56 23 0 -5 7 -11 15 -15 25 -9 17 -22 -25 -41 -22 -10 -45 -24
-51 -32 -7 -7 -20 -11 -29 -8 -22 7 -36 -45 -35 -130 1 -69 46 -179 92 -227
26 -27 26 -28 6 -28 -12 0 -34 5 -50 11 -15 6 -30 10 -31 9 -2 -1 -17 11 -33
26 -16 15 -32 24 -36 20 -4 -4 -2 -10 4 -14 7 -4 14 -19 17 -32 3 -14 10 -46
16 -72 l11 -46 65 30 c35 16 96 35 134 41 152 23 400 -42 479 -127 27 -29 51
-34 51 -12 0 8 16 27 35 42 22 16 35 35 35 49 0 41 64 78 75 44 5 -14 -1 -27
-20 -45 l-27 -25 36 -39 c20 -22 36 -43 36 -48 0 -4 -12 -19 -25 -34 -18 -21
-33 -28 -60 -28 -40 0 -42 -6 -16 -52 32 -53 51 -145 51 -244 0 -60 4 -94 11
-96 8 -3 7 -9 -4 -19 -13 -14 -27 -109 -31 -228 l-2 -35 -65 -1 c-60 -1 -69
-4 -110 -37 -24 -20 -73 -52 -109 -72 -113 -61 -304 -81 -444 -45 -59 16 -55
2 9 -27 104 -48 325 -44 458 7 26 11 59 19 73 19 31 0 195 38 214 50 11 7 10
13 -3 34 -21 31 -22 42 -2 26 8 -7 15 -19 15 -26 0 -8 5 -14 10 -14 6 0 10 4
10 9 0 5 11 9 25 9 25 0 31 -22 7 -24 -7 -1 -15 -2 -19 -3 -3 0 2 -10 12 -21
9 -10 22 -18 29 -17 6 1 10 -3 9 -10 -2 -6 6 -15 17 -18 11 -4 20 -13 20 -21
0 -8 13 -17 30 -20 16 -4 28 -11 27 -16 -9 -42 150 -73 300 -58 109 11 171 39
179 80 4 17 18 40 33 51 14 12 27 25 27 30 1 5 2 16 3 24 0 8 7 15 14 15 7 0
17 10 22 22 6 12 31 35 57 51 36 22 50 26 65 19 12 -7 36 -7 68 -1 103 20 95
15 95 66 0 72 20 121 73 179 56 62 97 89 150 98 42 8 42 8 22 40 -24 36 -30
115 -12 157 14 35 14 36 -4 32 -15 -4 -19 -15 -19 -53 0 -53 -43 -150 -66
-150 -7 0 -19 -9 -27 -20 -8 -11 -18 -17 -23 -12 -4 4 -3 0 3 -8 10 -13 8 -18
-8 -28 -11 -7 -24 -10 -29 -7 -5 3 -11 1 -14 -4 -8 -12 -80 3 -110 22 -31 21
-87 137 -92 191 -2 22 -1 33 2 24 5 -17 54 -23 54 -7 0 4 7 15 16 23 11 12 12
16 2 16 -7 0 -2 7 10 16 25 17 31 60 7 50 -19 -7 -20 20 -1 31 12 7 12 17 -6
68 -15 45 -18 73 -14 113 l6 52 -44 0 c-24 0 -57 3 -74 6 l-30 6 30 -58 c26
-52 29 -67 26 -130 -6 -130 -85 -211 -214 -222 -48 -4 -53 -6 -42 -21 11 -13
9 -13 -8 1 -16 14 -132 77 -142 78 -2 0 -1 -4 3 -9 7 -13 -24 -30 -44 -24 -10
2 -48 -7 -85 -21 -38 -14 -77 -26 -87 -26 -11 0 -19 -4 -19 -10 0 -5 -9 -10
-21 -10 -25 0 -60 -18 -76 -39 -10 -14 -14 -14 -31 5 -11 11 -23 30 -26 42 -4
12 -11 22 -16 22 -15 0 0 82 22 117 24 40 97 105 140 126 35 17 30 21 -35 31
-48 6 -96 42 -136 100 -26 40 -29 52 -25 98 6 66 46 152 85 180 16 12 29 25
29 29 0 4 -17 10 -37 14 -21 4 -67 22 -103 41 -57 30 -67 40 -84 81 -26 65
-100 179 -124 192 -16 8 -21 7 -26 -5z m24 -158 c0 -5 -7 -3 -15 4 -8 7 -15
20 -15 28 0 13 3 12 15 -4 8 -10 15 -23 15 -28z m70 7 c0 -19 -13 -9 -16 12
-1 8 2 13 7 9 5 -3 9 -12 9 -21z m-35 -4 c11 -17 -1 -21 -15 -4 -8 9 -8 15 -2
15 6 0 14 -5 17 -11z m-501 -35 c12 -5 13 -10 5 -26 -6 -11 -8 -27 -4 -36 5
-14 4 -15 -7 -4 -7 7 -13 26 -14 42 -2 33 -2 33 20 24z m-53 -51 c-8 -15 -10
-15 -11 -2 0 17 10 32 18 25 2 -3 -1 -13 -7 -23z m394 -1 c-3 -3 -11 0 -18 7
-9 10 -8 11 6 5 10 -3 15 -9 12 -12z m-124 -23 c-13 -10 -28 -19 -35 -19 -6 1
2 12 19 25 16 13 32 22 35 19 3 -3 -6 -14 -19 -25z m-351 -39 c0 -5 -5 -10
-11 -10 -5 0 -7 5 -4 10 3 6 8 10 11 10 2 0 4 -4 4 -10z m345 0 c3 -6 -1 -7
-9 -4 -18 7 -21 14 -7 14 6 0 13 -4 16 -10z m65 -4 c0 -3 -4 -8 -10 -11 -5 -3
-10 -1 -10 4 0 6 5 11 10 11 6 0 10 -2 10 -4z m-352 -28 c-2 -6 -10 -14 -16
-16 -7 -2 -10 2 -6 12 7 18 28 22 22 4z m92 -18 c0 -5 -5 -10 -11 -10 -5 0 -7
-4 -4 -10 3 -5 1 -10 -4 -10 -13 0 -13 3 -5 24 7 18 24 22 24 6z m-33 -82 c-3
-8 -6 -5 -6 6 -1 11 2 17 5 13 3 -3 4 -12 1 -19z m813 -322 c0 -9 -7 -12 -20
-9 -11 3 -20 9 -20 14 0 5 9 9 20 9 11 0 20 -6 20 -14z m-80 -106 c0 -3 -9 -6
-20 -6 -23 0 -25 7 -8 24 9 9 14 9 20 -1 4 -6 8 -14 8 -17z m905 0 c-3 -5 -11
-10 -16 -10 -6 0 -7 5 -4 10 3 6 11 10 16 10 6 0 7 -4 4 -10z m-550 -130 c3
-5 1 -10 -4 -10 -6 0 -11 5 -11 10 0 6 2 10 4 10 3 0 8 -4 11 -10z m-30 -30
c-3 -5 -10 -10 -16 -10 -5 0 -9 5 -9 10 0 6 7 10 16 10 8 0 12 -4 9 -10z m-59
-30 c0 -11 -5 -20 -11 -20 -6 0 -11 9 -12 20 -1 11 4 20 10 20 7 0 13 -9 13
-20z m406 -8 c14 -12 20 -12 33 -2 9 7 18 10 22 7 3 -4 14 -2 24 3 12 7 20 7
24 0 4 -6 1 -9 -6 -8 -6 2 -14 -3 -16 -10 -3 -8 1 -10 11 -6 9 3 16 1 16 -6 0
-6 5 -8 10 -5 6 3 10 -1 10 -9 0 -8 9 -18 21 -21 13 -4 18 -12 15 -21 -3 -9
-1 -12 4 -9 6 3 10 -1 10 -9 0 -9 -6 -16 -12 -16 -10 0 -9 -3 1 -9 7 -5 10
-14 6 -20 -5 -9 -10 -9 -21 0 -11 9 -14 9 -14 0 0 -7 -4 -9 -10 -6 -5 3 -10 1
-10 -5 0 -7 25 -8 78 -4 66 6 80 4 85 -9 5 -13 -11 -19 -86 -36 -51 -11 -101
-22 -112 -24 -11 -2 -19 -9 -17 -15 1 -7 -2 -12 -8 -12 -5 0 -10 5 -10 11 0 7
-8 17 -17 24 -15 11 -15 17 -3 58 11 41 10 50 -4 71 -9 15 -33 30 -56 36 -22
6 -52 22 -67 35 l-28 24 35 -9 c46 -13 46 -13 25 10 -18 20 -18 20 16 14 19
-4 42 -13 51 -22z m-472 8 c0 -5 -4 -10 -10 -10 -5 0 -10 5 -10 10 0 6 5 10
10 10 6 0 10 -4 10 -10z m-60 -10 c0 -5 -5 -10 -11 -10 -5 0 -7 5 -4 10 3 6 8
10 11 10 2 0 4 -4 4 -10z m170 -20 c0 -5 -4 -10 -10 -10 -5 0 -10 5 -10 10 0
6 5 10 10 10 6 0 10 -4 10 -10z m210 0 c0 -5 -4 -10 -10 -10 -5 0 -10 5 -10
10 0 6 5 10 10 10 6 0 10 -4 10 -10z m-293 -6 c-3 -3 -12 -4 -19 -1 -8 3 -5 6
6 6 11 1 17 -2 13 -5z m-57 -36 c0 -18 -2 -20 -9 -8 -6 8 -7 18 -5 22 9 14 14
9 14 -14z m101 8 c-10 -12 -8 -14 12 -12 21 3 23 0 18 -23 -4 -19 -6 -21 -9
-8 -2 9 -9 17 -15 17 -21 0 -40 17 -33 29 4 6 14 11 23 11 12 0 13 -3 4 -14z
m-178 -37 c-9 -9 -12 -7 -10 9 1 14 5 18 11 12 7 -7 6 -14 -1 -21z m277 21 c0
-5 -7 -10 -15 -10 -8 0 -15 5 -15 10 0 6 7 10 15 10 8 0 15 -4 15 -10z m75
-20 c3 -5 1 -10 -4 -10 -6 0 -11 5 -11 10 0 6 2 10 4 10 3 0 8 -4 11 -10z
m245 0 c0 -5 -5 -10 -12 -10 -6 0 -3 -9 7 -20 28 -31 9 -24 -25 10 l-31 30 31
0 c16 0 30 -4 30 -10z m-620 -10 c0 -5 -4 -10 -10 -10 -5 0 -10 5 -10 10 0 6
5 10 10 10 6 0 10 -4 10 -10z m67 -20 c-14 -24 -23 -25 -31 -4 -3 8 -2 13 3
10 5 -3 12 1 15 10 3 8 10 13 16 9 6 -4 5 -13 -3 -25z m63 15 c0 -2 -7 -5 -15
-9 -9 -3 -15 0 -15 9 0 9 6 12 15 9 8 -4 15 -7 15 -9z m140 -31 c0 -18 -36
-54 -54 -54 -8 0 -18 5 -22 11 -4 7 2 9 17 7 16 -2 25 3 27 15 2 10 -3 17 -13
17 -10 0 -13 -5 -9 -12 4 -6 3 -8 -3 -5 -6 4 -13 15 -15 24 -4 16 1 18 34 15
24 -3 38 -9 38 -18z m-313 -4 c8 -11 9 -21 3 -25 -8 -5 -30 24 -30 39 0 13 16
5 27 -14z m173 10 c0 -5 -5 -10 -11 -10 -5 0 -7 5 -4 10 3 6 8 10 11 10 2 0 4
-4 4 -10z m50 6 c0 -3 -4 -8 -10 -11 -5 -3 -10 -1 -10 4 0 6 5 11 10 11 6 0
10 -2 10 -4z m335 -30 c0 -15 -5 -22 -12 -19 -7 3 -13 14 -13 24 0 10 6 19 13
19 6 0 12 -11 12 -24z m-182 0 c3 -8 0 -19 -6 -24 -9 -8 -12 -4 -12 14 0 27
10 32 18 10z m-283 -16 c0 -5 -5 -10 -11 -10 -5 0 -7 5 -4 10 3 6 8 10 11 10
2 0 4 -4 4 -10z m94 -5 c-7 -16 -24 -21 -24 -6 0 8 7 13 27 20 1 1 0 -6 -3
-14z m-226 -7 c-2 -6 -10 -14 -16 -16 -7 -2 -10 2 -6 12 7 18 28 22 22 4z
m252 -19 c0 -11 -4 -17 -10 -14 -5 3 -10 13 -10 21 0 8 5 14 10 14 6 0 10 -9
10 -21z m211 -22 c-8 -8 -11 -3 -11 19 1 25 2 27 11 11 8 -14 8 -22 0 -30z
m-241 13 c0 -5 -4 -10 -10 -10 -5 0 -10 5 -10 10 0 6 5 10 10 10 6 0 10 -4 10
-10z m163 -10 c3 -10 -1 -24 -8 -30 -11 -9 -14 -5 -13 19 1 35 13 41 21 11z
m-361 -12 c-7 -7 -12 -8 -12 -2 0 14 12 26 19 19 2 -3 -1 -11 -7 -17z m58 12
c0 -5 -4 -10 -10 -10 -5 0 -10 5 -10 10 0 6 5 10 10 10 6 0 10 -4 10 -10z
m200 0 c0 -5 -5 -10 -11 -10 -5 0 -7 5 -4 10 3 6 8 10 11 10 2 0 4 -4 4 -10z
m-130 -15 c-10 -12 -16 -13 -26 -4 -20 16 -18 19 12 19 22 0 25 -2 14 -15z
m40 -5 c0 -5 -4 -10 -10 -10 -5 0 -10 5 -10 10 0 6 5 10 10 10 6 0 10 -4 10
-10z m99 -7 c3 -2 -1 -9 -7 -15 -10 -10 -17 -7 -35 11 l-22 22 30 -7 c17 -4
32 -9 34 -11z m210 10 c0 -5 -14 -19 -32 -33 -31 -24 -30 -19 8 27 11 14 25
17 24 6z m394 -32 c24 -15 26 -20 13 -30 -25 -21 -75 3 -76 37 0 18 31 15 63
-7z m-166 -11 c-4 -17 -2 -20 14 -15 15 5 19 2 18 -17 -1 -18 -2 -19 -6 -5 -4
17 -6 17 -23 2 -18 -16 -19 -16 -16 11 5 44 6 44 12 44 4 0 4 -9 1 -20z m-737
-4 c0 -3 -4 -8 -10 -11 -5 -3 -10 -1 -10 4 0 6 5 11 10 11 6 0 10 -2 10 -4z
m90 -6 c0 -5 -4 -10 -10 -10 -5 0 -10 5 -10 10 0 6 5 10 10 10 6 0 10 -4 10
-10z m293 -27 c-10 -21 -18 -39 -19 -41 0 -1 -12 2 -25 6 l-24 9 23 7 c13 4
27 19 32 32 5 13 14 24 20 24 5 0 2 -17 -7 -37z m-139 -12 c-9 -10 -26 18 -18
30 5 9 9 8 14 -7 4 -10 6 -21 4 -23z m-111 -11 c3 -11 1 -18 -4 -14 -5 3 -9
12 -9 20 0 20 7 17 13 -6z m37 6 c0 -8 6 -16 13 -19 6 -2 9 -7 6 -11 -3 -3
-13 -4 -20 -1 -16 6 -23 45 -8 45 5 0 9 -6 9 -14z m-180 0 c0 -3 -4 -8 -10
-11 -5 -3 -10 -1 -10 4 0 6 5 11 10 11 6 0 10 -2 10 -4z m60 -21 c7 -8 9 -15
6 -15 -4 0 -14 7 -22 15 -9 8 -11 15 -6 15 5 0 15 -7 22 -15z m40 5 c0 -5 -4
-10 -10 -10 -5 0 -10 5 -10 10 0 6 5 10 10 10 6 0 10 -4 10 -10z m-120 -40 c0
-5 -4 -10 -10 -10 -5 0 -10 5 -10 10 0 6 5 10 10 10 6 0 10 -4 10 -10z m150 0
c0 -5 -4 -10 -10 -10 -5 0 -10 5 -10 10 0 6 5 10 10 10 6 0 10 -4 10 -10z
m160 6 c0 -11 -19 -15 -25 -6 -3 5 1 10 9 10 9 0 16 -2 16 -4z m-280 -26 c0
-5 -2 -10 -4 -10 -3 0 -8 5 -11 10 -3 6 -1 10 4 10 6 0 11 -4 11 -10z m60 0
c0 -5 -5 -10 -11 -10 -5 0 -7 5 -4 10 3 6 8 10 11 10 2 0 4 -4 4 -10z m120 6
c0 -3 -4 -8 -10 -11 -5 -3 -10 -1 -10 4 0 6 5 11 10 11 6 0 10 -2 10 -4z m230
-6 c0 -5 -5 -10 -11 -10 -5 0 -7 5 -4 10 3 6 8 10 11 10 2 0 4 -4 4 -10z m-93
-6 c-3 -3 -12 -4 -19 -1 -8 3 -5 6 6 6 11 1 17 -2 13 -5z m-277 -44 c0 -5 -4
-10 -10 -10 -5 0 -10 5 -10 10 0 6 5 10 10 10 6 0 10 -4 10 -10z m-50 -10 c0
-5 -4 -10 -10 -10 -5 0 -10 5 -10 10 0 6 5 10 10 10 6 0 10 -4 10 -10z m204
-22 c7 -5 4 -8 -6 -8 -12 0 -18 7 -17 23 0 15 2 17 6 7 3 -8 11 -18 17 -22z
m26 22 c0 -5 -5 -10 -11 -10 -5 0 -7 5 -4 10 3 6 8 10 11 10 2 0 4 -4 4 -10z
m65 0 c19 -8 19 -9 -2 -9 -12 -1 -25 4 -28 9 -7 12 2 12 30 0z m-160 -70 c-3
-5 -11 -10 -16 -10 -6 0 -7 5 -4 10 3 6 11 10 16 10 6 0 7 -4 4 -10z m125 -30
c0 -5 -5 -10 -11 -10 -5 0 -7 5 -4 10 3 6 8 10 11 10 2 0 4 -4 4 -10z"/>
<path d="M11445 2850 c3 -5 8 -10 11 -10 2 0 4 5 4 10 0 6 -5 10 -11 10 -5 0
-7 -4 -4 -10z"/>
<path d="M11486 2715 c-3 -8 -1 -15 4 -15 6 0 10 7 10 15 0 8 -2 15 -4 15 -2
0 -6 -7 -10 -15z"/>
<path d="M9630 3886 c0 -7 8 -24 18 -37 11 -13 22 -42 25 -65 6 -34 2 -46 -18
-74 -14 -19 -25 -29 -25 -22 0 16 -25 15 -39 -2 -15 -18 -76 -18 -117 -1 -19
8 -37 27 -49 51 -23 48 -51 75 -73 67 -32 -11 -52 -36 -46 -55 5 -17 -10 -26
-19 -10 -2 4 -2 2 -1 -5 3 -14 -20 -36 -29 -27 -3 4 -4 -5 -1 -20 2 -14 0 -26
-5 -26 -5 0 -12 12 -14 28 -3 19 -4 14 -6 -15 -1 -29 -6 -43 -15 -43 -9 0 -12
11 -10 38 2 33 1 35 -11 19 -8 -11 -11 -25 -9 -32 3 -7 -3 -26 -13 -41 -18
-28 -18 -28 2 -20 144 61 284 68 390 22 32 -15 67 -34 76 -42 15 -13 20 -11
55 21 22 19 50 45 63 56 27 24 23 30 -21 34 -36 3 -36 3 -37 120 -1 46 -4 52
-36 73 -25 16 -35 18 -35 8z"/>
<path d="M9946 3861 c-4 -5 3 -7 14 -4 23 6 26 13 6 13 -8 0 -17 -4 -20 -9z"/>
<path d="M9896 3818 c-20 -28 -20 -38 -2 -38 12 0 46 40 46 55 0 14 -31 2 -44
-17z"/>
<path d="M11207 3674 c-13 -13 -7 -29 20 -48 16 -12 23 -14 18 -5 -8 12 -6 12
8 0 13 -10 14 -17 6 -27 -7 -9 -7 -18 0 -33 16 -28 14 -86 -4 -128 -8 -20 -14
-37 -13 -39 6 -6 88 21 88 28 0 11 27 10 32 -1 2 -4 13 -12 26 -15 22 -7 21
-5 -8 36 -48 68 -59 151 -28 211 8 15 3 17 -44 17 -29 0 -62 3 -73 6 -11 3
-24 2 -28 -2z"/>
<path d="M9129 3603 c-13 -16 -12 -17 4 -4 9 7 17 15 17 17 0 8 -8 3 -21 -13z"/>
<path d="M11885 3609 c-16 -5 -47 -7 -67 -3 -43 7 -43 5 -26 -59 l11 -44 34
10 c18 6 33 17 33 24 0 8 12 30 26 49 15 19 25 34 23 33 -2 0 -17 -5 -34 -10z"/>
<path d="M12949 3512 c-7 -15 -20 -35 -29 -46 -13 -16 -10 -15 23 4 21 13 37
30 37 40 0 30 -16 31 -31 2z"/>
<path d="M12387 3495 c-3 -11 -9 -35 -12 -53 -4 -19 -20 -49 -37 -68 -17 -19
-28 -34 -27 -34 2 1 29 9 59 20 40 13 56 24 58 39 2 12 10 21 18 21 21 0 17
13 -7 29 -20 12 -21 11 -15 -6 5 -12 4 -15 -3 -8 -5 6 -14 26 -19 45 -7 29
-10 31 -15 15z"/>
<path d="M9023 3488 c-24 -32 -24 -41 0 -19 15 14 27 26 27 28 0 8 -19 2 -27
-9z"/>
<path d="M8957 3412 c-11 -15 -19 -31 -20 -37 -2 -16 -21 -33 -33 -28 -17 6
-29 -18 -14 -27 15 -9 5 -30 -14 -30 -7 0 -27 -17 -45 -39 -24 -29 -38 -37
-53 -33 -15 3 -19 1 -14 -7 4 -6 12 -9 17 -6 15 10 10 -24 -8 -51 -12 -19 -18
-22 -24 -12 -12 19 -17 8 -27 -57 -5 -33 -15 -61 -21 -63 -6 -2 -18 -19 -27
-39 -10 -19 -24 -37 -33 -41 -9 -3 -31 -18 -49 -34 -18 -15 -45 -29 -60 -30
-47 -2 -66 -4 -116 -13 -115 -19 -292 -7 -407 26 -84 24 -100 24 -92 2 15 -40
81 -80 178 -109 92 -27 392 -24 660 7 44 5 106 9 138 9 31 0 57 2 57 5 0 2
-13 33 -29 68 -62 135 -51 314 29 474 26 51 42 93 36 93 -6 0 -19 -12 -29 -28z
m-193 -307 c-6 -16 -24 -21 -24 -7 0 11 11 22 21 22 5 0 6 -7 3 -15z m-11 -50
c-3 -9 -8 -14 -10 -11 -3 3 -2 9 2 15 9 16 15 13 8 -4z m-13 -35 c0 -5 -4 -10
-10 -10 -5 0 -10 5 -10 10 0 6 5 10 10 10 6 0 10 -4 10 -10z m-30 -24 c0 -3
-4 -8 -10 -11 -5 -3 -10 -1 -10 4 0 6 5 11 10 11 6 0 10 -2 10 -4z"/>
<path d="M15885 3381 c-3 -5 -2 -12 3 -15 5 -3 9 1 9 9 0 17 -3 19 -12 6z"/>
<path d="M9220 3315 c0 -8 5 -15 10 -15 6 0 10 7 10 15 0 8 -4 15 -10 15 -5 0
-10 -7 -10 -15z"/>
<path d="M12146 3288 c-3 -7 -7 -30 -10 -51 -2 -21 -12 -52 -20 -69 -9 -17
-15 -33 -13 -34 2 -2 16 0 33 5 25 6 29 12 30 43 1 36 35 103 57 112 7 2 -7 5
-31 5 -26 1 -44 -4 -46 -11z"/>
<path d="M9377 3276 c-6 -16 2 -28 14 -20 12 7 11 34 0 34 -5 0 -11 -6 -14
-14z"/>
<path d="M9239 3275 c-1 -3 -2 -8 -3 -12 -1 -5 -5 -14 -9 -20 -9 -14 -1 -33
14 -33 5 0 9 7 9 15 0 8 5 15 10 15 6 0 10 9 10 20 0 17 -27 30 -31 15z"/>
<path d="M9447 3262 c-30 -32 -18 -43 17 -17 14 10 17 18 10 25 -7 7 -16 5
-27 -8z"/>
<path d="M15841 3254 c0 -11 3 -14 6 -6 3 7 2 16 -1 19 -3 4 -6 -2 -5 -13z"/>
<path d="M11063 3226 c-42 -21 -55 -36 -30 -36 7 0 23 -9 36 -21 12 -12 23
-19 25 -18 7 10 22 99 17 98 -3 -1 -25 -11 -48 -23z"/>
<path d="M9467 3223 c-12 -12 -7 -22 8 -17 8 4 15 10 15 15 0 11 -14 12 -23 2z"/>
<path d="M9476 3192 c-2 -4 2 -15 9 -25 8 -12 15 -14 20 -8 3 6 2 11 -4 11 -6
0 -8 7 -5 15 6 15 -11 21 -20 7z"/>
<path d="M9510 3140 c-12 -8 -12 -10 2 -15 19 -7 38 1 38 16 0 12 -21 11 -40
-1z"/>
<path d="M9170 3130 c0 -5 4 -10 9 -10 6 0 13 5 16 10 3 6 -1 10 -9 10 -9 0
-16 -4 -16 -10z"/>
<path d="M9216 3090 c-17 -35 -4 -40 18 -8 18 25 20 38 7 38 -5 0 -16 -13 -25
-30z"/>
<path d="M9167 3104 c-11 -11 3 -24 18 -18 8 4 12 10 9 15 -6 11 -18 12 -27 3z"/>
<path d="M9495 3100 c3 -5 13 -10 21 -10 8 0 14 5 14 10 0 6 -9 10 -21 10 -11
0 -17 -4 -14 -10z"/>
<path d="M9480 3070 c0 -13 28 -25 38 -16 3 4 0 11 -8 16 -20 13 -30 12 -30 0z"/>
<path d="M10106 3043 c-13 -13 -6 -42 9 -37 16 7 20 30 6 38 -4 3 -11 3 -15
-1z"/>
<path d="M9246 3032 c-4 -7 -5 -21 -1 -31 3 -11 0 -21 -9 -24 -10 -4 -12 0 -8
15 3 15 1 19 -9 16 -9 -3 -13 -16 -11 -34 5 -38 8 -40 31 -20 19 17 19 17 14
-3 -7 -26 3 -27 16 -2 12 22 -10 103 -23 83z"/>
<path d="M10121 2995 c-21 -21 -22 -45 -2 -45 15 0 62 50 56 60 -10 16 -28 11
-54 -15z"/>
<path d="M9394 2994 c3 -9 6 -19 6 -24 0 -4 11 -7 25 -7 33 0 33 25 -1 37 -34
13 -37 13 -30 -6z"/>
<path d="M10070 2993 c0 -13 5 -23 10 -23 13 0 13 11 0 30 -8 12 -10 11 -10
-7z"/>
<path d="M10187 3003 c-4 -3 -7 -13 -7 -22 1 -13 3 -13 11 2 11 19 8 33 -4 20z"/>
<path d="M9347 2993 c-11 -10 -8 -43 3 -43 6 0 10 11 10 25 0 26 -2 29 -13 18z"/>
<path d="M10246 2975 c-11 -8 -15 -15 -9 -15 6 0 16 7 23 15 16 19 11 19 -14
0z"/>
<path d="M10257 2952 c-36 -40 -5 -76 39 -47 29 19 31 29 4 22 -16 -4 -18 -2
-10 13 6 10 10 21 10 24 0 13 -28 5 -43 -12z"/>
<path d="M10760 2950 c0 -5 5 -10 11 -10 5 0 7 5 4 10 -3 6 -8 10 -11 10 -2 0
-4 -4 -4 -10z"/>
<path d="M9950 2942 c0 -10 21 -32 32 -32 16 0 8 19 -12 30 -11 6 -20 7 -20 2z"/>
<path d="M10050 2941 c0 -5 6 -14 14 -20 16 -13 32 2 21 19 -8 12 -35 13 -35
1z"/>
<path d="M8496 2911 c-4 -7 -5 -15 -2 -18 9 -9 19 4 14 18 -4 11 -6 11 -12 0z"/>
<path d="M9916 2890 c5 -5 25 -13 44 -16 32 -7 34 -6 21 9 -7 9 -27 17 -44 17
-20 0 -28 -3 -21 -10z"/>
<path d="M9925 2850 c-3 -6 1 -13 10 -16 19 -8 30 0 20 15 -8 14 -22 14 -30 1z"/>
<path d="M10275 2830 c-8 -12 20 -24 35 -15 6 3 8 11 5 16 -8 12 -32 12 -40
-1z"/>
<path d="M14140 2815 c0 -8 5 -15 10 -15 6 0 10 7 10 15 0 8 -4 15 -10 15 -5
0 -10 -7 -10 -15z"/>
<path d="M9925 2810 c-3 -5 1 -10 9 -10 9 0 16 5 16 10 0 6 -4 10 -9 10 -6 0
-13 -4 -16 -10z"/>
<path d="M9965 2802 l-29 -15 23 -10 c15 -7 25 -7 29 -1 4 6 15 13 25 17 9 3
17 11 17 17 0 14 -30 11 -65 -8z"/>
<path d="M10293 2783 c-22 -8 -14 -23 13 -23 15 0 24 5 22 12 -5 14 -18 18
-35 11z"/>
<path d="M9990 2745 c-11 -13 -8 -15 13 -15 19 0 25 4 21 15 -4 8 -10 15 -14
15 -4 0 -13 -7 -20 -15z"/>
<path d="M10281 2734 c6 -8 19 -14 27 -14 12 0 13 3 4 12 -6 6 -19 13 -27 14
-13 2 -14 -1 -4 -12z"/>
<path d="M14235 2740 c3 -5 8 -10 11 -10 2 0 4 5 4 10 0 6 -5 10 -11 10 -5 0
-7 -4 -4 -10z"/>
<path d="M10074 2710 c-4 -16 -11 -30 -15 -30 -5 0 -7 12 -4 28 3 15 2 20 -2
12 -3 -8 -15 -21 -25 -28 -19 -14 -15 -38 4 -26 7 5 9 0 6 -14 -7 -25 9 -30
18 -7 4 8 15 15 26 15 15 0 19 5 15 20 -3 10 0 21 6 23 13 4 2 37 -13 37 -6 0
-13 -13 -16 -30z"/>
<path d="M12198 2728 c-30 -8 -36 -13 -29 -26 21 -42 19 -138 -4 -219 -5 -15
-2 -22 12 -26 17 -4 17 -5 -1 -6 -16 -1 -45 -26 -46 -41 0 -3 33 -5 73 -5 l74
0 -24 52 c-13 29 -29 79 -35 111 -10 55 -9 63 15 115 28 61 27 62 -35 45z"/>
<path d="M14170 2730 c0 -5 5 -10 11 -10 5 0 7 5 4 10 -3 6 -8 10 -11 10 -2 0
-4 -4 -4 -10z"/>
<path d="M14151 2704 c0 -11 3 -14 6 -6 3 7 2 16 -1 19 -3 4 -6 -2 -5 -13z"/>
<path d="M10224 2698 c-4 -6 1 -17 12 -25 16 -12 19 -11 26 4 3 10 7 21 7 26
1 12 -37 8 -45 -5z"/>
<path d="M10145 2689 c-4 -6 -3 -15 3 -21 6 -6 11 -4 15 6 7 18 -9 31 -18 15z"/>
<path d="M10184 2689 c-6 -8 -8 -24 -5 -37 l6 -23 17 21 c10 11 14 20 9 20 -5
0 -11 7 -13 17 -2 14 -5 14 -14 2z"/>
<path d="M10292 2684 c2 -11 11 -20 22 -22 13 -3 17 1 14 14 -2 11 -11 20 -22
22 -13 3 -17 -1 -14 -14z"/>
<path d="M10110 2680 c0 -5 5 -10 10 -10 6 0 10 5 10 10 0 6 -4 10 -10 10 -5
0 -10 -4 -10 -10z"/>
<path d="M14277 2665 c-4 -8 -3 -16 1 -19 4 -3 9 4 9 15 2 23 -3 25 -10 4z"/>
<path d="M9553 2658 c-16 -25 -108 -62 -163 -66 -48 -3 -132 10 -220 33 -22 6
-21 2 13 -29 59 -53 111 -66 285 -73 172 -7 169 -8 132 69 -11 23 -20 47 -20
54 0 19 -18 26 -27 12z"/>
<path d="M14656 2662 c-2 -4 -1 -14 3 -21 6 -9 10 -7 14 8 5 20 -7 29 -17 13z"/>
<path d="M10147 2633 c-4 -3 -7 -11 -7 -17 0 -6 5 -5 12 2 6 6 9 14 7 17 -3 3
-9 2 -12 -2z"/>
<path d="M14495 2630 c3 -5 12 -7 20 -3 21 7 19 13 -6 13 -11 0 -18 -4 -14
-10z"/>
<path d="M14562 2624 c10 -10 20 -16 22 -13 3 3 -5 11 -17 18 -21 13 -21 12
-5 -5z"/>
<path d="M14702 2633 c-6 -2 -10 -9 -6 -14 3 -5 0 -9 -6 -9 -6 0 -8 -5 -4 -11
5 -8 10 -7 16 4 5 10 15 14 26 10 15 -6 15 -5 3 10 -7 9 -14 17 -15 16 0 0 -7
-3 -14 -6z"/>
<path d="M14380 2620 c0 -5 5 -10 10 -10 6 0 10 5 10 10 0 6 -4 10 -10 10 -5
0 -10 -4 -10 -10z"/>
<path d="M14765 2620 c3 -5 8 -10 11 -10 2 0 4 5 4 10 0 6 -5 10 -11 10 -5 0
-7 -4 -4 -10z"/>
<path d="M15450 2590 c-46 -40 -44 -56 3 -20 14 11 30 20 36 20 6 0 11 9 11
20 0 11 -1 20 -2 20 -2 0 -23 -18 -48 -40z"/>
<path d="M15100 2610 c0 -5 5 -10 10 -10 6 0 10 5 10 10 0 6 -4 10 -10 10 -5
0 -10 -4 -10 -10z"/>
<path d="M14628 2603 c7 -3 16 -2 19 1 4 3 -2 6 -13 5 -11 0 -14 -3 -6 -6z"/>
<path d="M14568 2593 c7 -3 16 -2 19 1 4 3 -2 6 -13 5 -11 0 -14 -3 -6 -6z"/>
<path d="M15000 2590 c0 -5 5 -10 10 -10 6 0 10 5 10 10 0 6 -4 10 -10 10 -5
0 -10 -4 -10 -10z"/>
<path d="M14530 2580 c0 -5 5 -10 11 -10 5 0 7 5 4 10 -3 6 -8 10 -11 10 -2 0
-4 -4 -4 -10z"/>
<path d="M14660 2580 c0 -5 5 -10 11 -10 5 0 7 5 4 10 -3 6 -8 10 -11 10 -2 0
-4 -4 -4 -10z"/>
<path d="M15158 2583 c7 -3 16 -2 19 1 4 3 -2 6 -13 5 -11 0 -14 -3 -6 -6z"/>
<path d="M14625 2570 c-3 -5 -1 -10 4 -10 6 0 11 5 11 10 0 6 -2 10 -4 10 -3
0 -8 -4 -11 -10z"/>
<path d="M14745 2559 c-9 -14 -2 -20 14 -10 8 6 9 11 3 15 -6 3 -14 1 -17 -5z"/>
<path d="M14875 2560 c3 -5 8 -10 11 -10 2 0 4 5 4 10 0 6 -5 10 -11 10 -5 0
-7 -4 -4 -10z"/>
<path d="M15020 2541 c0 -20 29 -24 45 -7 9 9 12 16 6 16 -5 0 -13 -5 -16 -10
-5 -8 -11 -7 -21 1 -10 9 -14 9 -14 0z"/>
<path d="M14990 2524 c0 -8 5 -12 10 -9 6 4 8 11 5 16 -9 14 -15 11 -15 -7z"/>
</g>
</svg>
