<svg viewBox="0 0 848 1066.744" xmlns="http://www.w3.org/2000/svg"><path d="M0 288.524h847.738v582.878c-.106 96.016-77.914 173.825-173.92 173.93H173.93C77.916 1045.228.107 967.42 0 871.413v-.01zm801.107 46.63H46.63v536.248c.08 70.274 57.027 127.22 127.293 127.3h499.884c70.274-.08 127.22-57.026 127.3-127.292v-.008zM625.312 445.202h-46.63V222.776c0-85.5-69.312-154.812-154.812-154.812s-154.812 69.312-154.812 154.812v222.426h-46.63V222.776c0-111.254 90.19-201.443 201.443-201.443s201.444 90.19 201.444 201.443z"/></svg>